<svg width="690" height="633" viewBox="0 0 690 633" fill="none" xmlns="http://www.w3.org/2000/svg">
<g clip-path="url(#clip0_6_88)">
<path d="M126.099 412.877L124.918 337.616L187.023 299.159L250.308 335.728L251.253 410.99L189.148 449.447L126.099 412.877Z" fill="#D2D700"/>
<path d="M124.918 337.616L187.023 299.159L250.308 335.728L124.918 337.616Z" fill="#F3E600"/>
<path d="M250.308 335.728L188.203 374.185L124.918 337.616L250.308 335.728Z" fill="#F3E600"/>
<path d="M0.944559 337.38L0 262.354L62.1047 223.897L125.39 260.467L126.335 335.492L64.23 374.185L0.944559 337.38Z" fill="#D2D700"/>
<path d="M0 262.354L62.1047 223.897L125.39 260.467L0 262.354Z" fill="#F3E600"/>
<path d="M125.39 260.467L63.2854 298.923L0 262.354L125.39 260.467Z" fill="#F3E600"/>
<path d="M123.737 264.713L122.556 189.688L185.133 151.231L248.655 187.8L249.6 262.826L187.259 301.283L123.737 264.713Z" fill="#D2D700"/>
<path d="M188.676 449.211L187.495 374.185L249.836 335.492L312.885 372.298L314.066 447.323L251.725 485.78L188.676 449.211Z" fill="#D2D700"/>
<path d="M187.495 374.185L249.6 335.492L312.885 372.298L187.495 374.185Z" fill="#F3E600"/>
<path d="M312.885 372.297L250.78 410.754L187.495 374.185L312.885 372.297Z" fill="#F3E600"/>
<path d="M249.6 484.6V410.046L312.413 372.769L375.462 410.046V484.6L312.413 521.877L249.6 484.6Z" fill="#31B7BC"/>
<path d="M249.6 410.046L312.413 372.769L375.462 410.046H249.6Z" fill="#31B7BC"/>
<path d="M375.462 410.046L312.413 447.323L249.6 410.046H375.462Z" fill="#31B7BC"/>
<path d="M185.37 223.19V150.523L249.127 113.954L312.649 150.523V223.19L249.127 259.759L185.37 223.19Z" fill="#D2D700"/>
<path d="M185.37 298.451V223.898L248.891 186.621L312.413 223.898V298.451L248.891 335.728L185.37 298.451Z" fill="#D2D700"/>
<path d="M186.786 149.344L249.6 112.303L312.413 149.344H186.786Z" fill="#F28F7C"/>
<path d="M312.413 149.344L249.6 186.621L186.786 149.344H312.413Z" fill="#F28F7C"/>
<path d="M249.6 335.728V261.174L312.413 223.897L375.462 261.174V335.728L312.413 373.005L249.6 335.728Z" fill="#D2D700"/>
<path d="M249.6 261.174L312.413 223.897L375.462 261.174H249.6Z" fill="#D2D700"/>
<path d="M375.462 261.174L312.413 298.451L249.6 261.174H375.462Z" fill="#D2D700"/>
<path d="M312.649 223.898V149.344L375.462 112.067L438.275 149.344V223.898L375.462 261.174L312.649 223.898Z" fill="#D2D700"/>
<path d="M312.413 149.344L375.226 112.067L438.039 149.344H312.413Z" fill="#F3E600"/>
<path d="M438.039 149.344L375.226 186.621L312.413 149.344H438.039Z" fill="#F3E600"/>
<path d="M501.088 261.174V335.728L438.039 373.005L375.226 335.728V261.174L438.039 223.897L501.088 261.174Z" fill="#D2D700"/>
<path d="M438.039 223.898V149.344L500.852 112.067L563.901 149.344V223.898L500.852 261.174L438.039 223.898Z" fill="#D2D700"/>
<path d="M438.039 149.344L500.852 112.067L563.901 149.344H438.039Z" fill="#D2D700"/>
<path d="M563.901 149.344L500.852 186.621L438.039 149.344H563.901Z" fill="#D2D700"/>
<path d="M564.138 223.898V149.344L626.951 112.067L690 149.344V223.898L626.951 261.174L564.138 223.898Z" fill="#99C21D"/>
<path d="M564.138 149.344L626.951 112.067L690 149.344H564.138Z" fill="#99C21D"/>
<path d="M690 149.344L626.951 186.621L564.138 149.344H690Z" fill="#99C21D"/>
<path d="M312.649 521.877V447.323L375.462 410.046L438.275 447.323V521.877L375.462 558.918L312.649 521.877Z" fill="#31B7BC"/>
<path d="M312.649 447.323L375.462 410.046L438.275 447.323H312.649Z" fill="#31B7BC"/>
<path d="M438.275 447.323L375.462 484.6L312.649 447.323H438.275Z" fill="#31B7BC"/>
<path d="M500.852 410.282V335.728L563.901 298.451L626.715 335.728V410.282L563.901 447.559L500.852 410.282Z" fill="#99C21D"/>
<path d="M500.852 335.728L563.901 298.451L626.715 335.728H500.852Z" fill="#99C21D"/>
<path d="M626.715 335.728L563.901 373.005L500.852 335.728H626.715Z" fill="#99C21D"/>
<path d="M249.6 112.067L312.413 75.0258L375.462 112.067H249.6Z" fill="#F28F7C"/>
<path d="M375.462 112.067L312.413 149.344L249.6 112.067H375.462Z" fill="#F28F7C"/>
<path d="M249.6 37.2769L312.413 0L375.226 37.2769H249.6Z" fill="#F28F7C"/>
<path d="M375.226 37.2769L312.413 74.5538L249.6 37.2769H375.226Z" fill="#F28F7C"/>
<path d="M500.852 186.621L563.901 149.58L626.715 186.621H500.852Z" fill="#BDD014"/>
<path d="M626.715 186.621L563.901 223.898L500.852 186.621H626.715Z" fill="#BDD014"/>
<path d="M375.226 112.067L438.039 75.0258L501.088 112.067H375.226Z" fill="#F3E600"/>
<path d="M501.088 112.067L438.039 149.344L375.226 112.067H501.088Z" fill="#F3E600"/>
<path d="M626.715 261.174V335.492L563.901 372.769L500.852 335.492V261.174L563.901 223.897L626.715 261.174Z" fill="#99C21D"/>
<path d="M626.715 186.621V261.174L563.901 298.451L500.852 261.174V186.621L563.901 149.344L626.715 186.621Z" fill="#99C21D"/>
<path d="M626.715 335.728L563.901 373.005L500.852 335.728H626.715Z" fill="#BDD014"/>
<path d="M500.852 335.728L563.901 298.451L626.715 335.728H500.852Z" fill="#BDD014"/>
<path d="M438.275 595.723V521.169L501.088 483.892L563.901 521.169V595.723L501.088 633L438.275 595.723Z" fill="#31B7BC"/>
<path d="M438.275 521.169L501.088 483.892L563.901 521.169H438.275Z" fill="#31B7BC"/>
<path d="M563.901 521.169L501.088 558.446L438.039 521.169H563.901Z" fill="#31B7BC"/>
<path d="M438.275 373.005L501.088 335.728L563.901 373.005H438.275Z" fill="#6EC6D9"/>
<path d="M563.901 373.005L501.088 410.282L438.039 373.005H563.901Z" fill="#6EC6D9"/>
<path d="M501.088 484.6V410.046L438.275 372.769L375.462 410.046V484.6L438.275 521.877L501.088 484.6Z" fill="#31B7BC"/>
<path d="M501.088 410.046L438.275 372.769L375.462 410.046H501.088Z" fill="#31B7BC"/>
<path d="M375.462 410.046L438.275 447.323L501.088 410.046H375.462Z" fill="#31B7BC"/>
<path d="M312.885 372.533L312.413 447.087L374.99 484.6L438.039 447.795L438.511 373.241L375.934 335.728L312.885 372.533Z" fill="#D2D700"/>
<path d="M312.413 447.087L374.99 484.6L438.039 447.795L312.413 447.087Z" fill="#D2D700"/>
<path d="M438.039 447.795L375.462 410.282L312.413 447.087L438.039 447.795Z" fill="#D2D700"/>
<path d="M438.039 447.795L374.99 484.6L312.413 447.087L438.039 447.795Z" fill="#6EC6D9"/>
<path d="M312.413 447.087L375.462 410.282L438.039 447.795L312.413 447.087Z" fill="#6EC6D9"/>
<path d="M563.429 521.169L626.478 483.892L689.292 521.169H563.429Z" fill="#6EC6D9"/>
<path d="M689.292 521.169L626.478 558.446L563.429 521.169H689.292Z" fill="#6EC6D9"/>
<path d="M249.363 409.81L312.413 372.533L375.226 409.81H249.363Z" fill="#F3E600"/>
<path d="M375.226 409.81L312.413 447.087L249.363 409.81H375.226Z" fill="#F3E600"/>
<path d="M123.973 484.6L186.786 447.323L249.6 484.6H123.973Z" fill="#F3E600"/>
<path d="M249.6 484.6L186.786 521.877L123.973 484.6H249.6Z" fill="#F3E600"/>
<path d="M124.446 188.036L186.55 149.58L249.836 186.149L124.446 188.036Z" fill="#F28F7C"/>
<path d="M249.836 186.149L187.731 224.605L124.446 188.036L249.836 186.149Z" fill="#F28F7C"/>
<path d="M122.556 189.216L184.661 150.759L247.947 187.328L122.556 189.216Z" fill="#F28F7C"/>
<path d="M247.947 187.328L185.842 225.785L122.556 189.216L247.947 187.328Z" fill="#F28F7C"/>
<path d="M563.901 372.769L500.852 410.046L438.039 372.769H563.901Z" fill="#BDD014"/>
<path d="M438.039 372.769L500.852 335.492L563.901 372.769H438.039Z" fill="#BDD014"/>
</g>
<defs>
<clipPath id="clip0_6_88">
<rect width="690" height="633" fill="white"/>
</clipPath>
</defs>
</svg>
