<svg width="842" height="936" viewBox="0 0 842 936" fill="none" xmlns="http://www.w3.org/2000/svg">
<g opacity="0.25">
<path d="M199.722 184.329L234.44 244.765L199.722 305.201H129.532L94.8141 244.765L129.532 184.329H199.722Z" fill="url(#paint0_linear_13_106)"/>
<path d="M198.213 186.596L231.421 244.765L198.213 302.179H131.796L98.5878 244.765L131.796 186.596H198.213Z" fill="url(#paint1_linear_13_106)"/>
<path d="M198.213 186.596L231.421 244.765L198.213 302.179H131.796L98.5878 244.765L131.796 186.596H198.213Z" fill="#17172E"/>
<path opacity="0.9804" d="M198.213 187.351L231.421 244.765L198.213 302.179H132.551C132.551 302.179 99.3425 245.521 99.3425 244.765C99.3425 244.01 131.796 187.351 132.551 187.351C133.306 187.351 197.458 187.351 198.213 187.351Z" fill="#17172E"/>
<path opacity="0.9608" d="M198.213 188.107C198.967 188.107 230.666 244.765 230.666 244.765L198.213 302.179H132.551L100.097 245.521C100.097 244.765 132.551 188.862 132.551 188.862C132.551 188.862 197.458 188.107 198.213 188.107Z" fill="#17172E"/>
<path opacity="0.9412" d="M198.213 188.862C198.967 188.862 230.666 245.521 230.666 245.521L198.213 302.179H133.306C133.306 302.179 100.852 246.276 100.852 245.521C100.852 244.765 132.551 189.618 133.306 188.862C134.06 188.107 197.458 188.862 198.213 188.862Z" fill="#17172E"/>
<path opacity="0.9216" d="M198.213 189.617C198.967 190.373 230.666 245.521 230.666 245.521L198.213 302.179H133.306C133.306 302.179 100.852 247.031 100.852 246.276C100.852 245.521 132.551 190.373 133.306 190.373C134.06 189.617 197.458 189.617 198.213 189.617Z" fill="#17172E"/>
<path opacity="0.902" d="M198.213 190.373C198.967 191.128 230.666 246.276 230.666 246.276L198.213 302.179H134.06C134.06 302.179 101.607 247.787 101.607 246.276C101.607 245.521 132.551 191.128 134.06 190.373C134.815 190.373 196.703 190.373 198.213 190.373Z" fill="#17172E"/>
<path opacity="0.8824" d="M198.213 191.128C199.722 191.884 229.911 246.276 229.911 246.276L198.213 302.179H134.06C134.06 302.179 102.362 247.787 102.362 247.031C102.362 245.521 133.306 192.639 134.06 191.884C135.57 190.373 196.703 190.373 198.213 191.128Z" fill="#17172E"/>
<path opacity="0.8627" d="M198.213 191.884C199.722 192.639 229.911 247.031 229.911 247.031L198.213 302.179H134.815C134.815 302.179 103.116 248.542 103.116 247.031C103.116 245.521 133.306 192.639 134.815 191.884C135.57 191.128 196.703 191.128 198.213 191.884Z" fill="#17172E"/>
<path opacity="0.8431" d="M198.213 192.639C199.722 193.395 229.911 247.032 229.911 247.032L198.213 302.179H135.57C135.57 302.179 103.871 249.298 103.871 247.787C103.871 246.276 134.06 194.15 135.57 193.395C137.079 192.639 196.703 191.884 198.213 192.639Z" fill="#17172E"/>
<path opacity="0.8235" d="M198.213 193.395C199.722 194.15 229.157 247.787 229.157 247.787L198.213 302.179H135.57C135.57 302.179 104.626 250.053 104.626 247.787C104.626 245.521 134.06 194.15 135.57 193.395C137.079 192.639 195.948 192.639 198.213 193.395Z" fill="#17172E"/>
<path opacity="0.8039" d="M198.213 194.15C200.477 194.906 229.157 247.787 229.157 247.787L198.213 302.179H136.324C136.324 302.179 105.38 250.809 105.38 248.543C105.38 246.276 134.815 195.661 136.324 194.906C137.834 193.395 195.948 193.395 198.213 194.15Z" fill="#17172E"/>
<path opacity="0.7843" d="M198.213 194.906C200.477 196.417 229.157 248.543 229.157 248.543L198.213 302.179H136.324C136.324 302.179 105.38 250.809 105.38 248.543C105.38 246.276 134.06 196.417 136.324 194.906C138.589 194.15 195.948 194.15 198.213 194.906Z" fill="#17172E"/>
<path opacity="0.7647" d="M198.213 195.661C200.477 197.172 229.157 248.542 229.157 248.542L198.213 301.424H137.079C137.079 301.424 106.135 250.809 106.135 248.542C106.135 246.276 134.815 196.416 137.079 195.661C139.343 194.15 195.948 194.15 198.213 195.661Z" fill="#17172E"/>
<path opacity="0.7451" d="M198.213 196.417C200.477 197.928 228.402 249.298 228.402 249.298L198.213 302.179H137.079C137.079 302.179 106.89 252.32 106.89 249.298C106.89 246.276 134.815 197.928 137.079 196.417C139.343 194.906 195.194 194.906 198.213 196.417Z" fill="#17172E"/>
<path opacity="0.7255" d="M198.213 197.172C201.232 198.683 228.402 249.298 228.402 249.298L198.213 301.424H137.834C137.834 301.424 107.645 252.32 107.645 249.298C107.645 246.276 135.57 198.683 137.834 197.172C140.098 195.661 195.194 195.661 198.213 197.172Z" fill="#17172E"/>
<path opacity="0.7059" d="M198.213 197.927C201.232 199.438 228.402 250.053 228.402 250.053L198.213 302.179H137.834C137.834 302.179 107.645 253.075 107.645 250.053C107.645 247.031 134.815 199.438 137.834 197.927C140.853 196.416 195.194 196.416 198.213 197.927Z" fill="#17172E"/>
<path opacity="0.6863" d="M198.213 198.683C201.232 200.194 227.647 250.053 227.647 250.053L198.213 302.179H138.589C138.589 302.179 109.154 253.831 109.154 250.809C109.154 247.032 135.57 200.949 138.589 199.438C141.608 197.927 195.194 197.172 198.213 198.683Z" fill="#17172E"/>
<path opacity="0.6667" d="M198.213 199.438C201.232 200.949 227.647 250.809 227.647 250.809L198.213 302.179H138.589C138.589 302.179 109.154 254.586 109.154 250.809C109.154 247.032 135.57 201.705 138.589 199.438C142.362 197.927 195.194 197.927 198.213 199.438Z" fill="#17172E"/>
<path opacity="0.6471" d="M198.213 200.194C201.986 202.46 227.647 250.809 227.647 250.809L198.213 302.179H139.343C139.343 302.179 109.909 255.342 109.909 251.564C109.909 247.787 135.57 202.46 139.343 200.949C143.117 197.928 194.439 197.928 198.213 200.194Z" fill="#17172E"/>
<path opacity="0.6275" d="M198.213 200.949C201.986 203.216 227.647 251.564 227.647 251.564L198.213 302.179H140.098C140.098 302.179 110.664 256.097 110.664 251.564C110.664 247.032 136.325 203.216 140.098 200.949C143.117 198.683 194.439 198.683 198.213 200.949Z" fill="#17172E"/>
<path opacity="0.6078" d="M198.213 201.705C201.986 203.971 226.892 251.564 226.892 251.564L198.213 302.179H140.098C140.098 302.179 111.418 256.097 111.418 252.32C111.418 247.787 136.324 203.971 140.098 202.46C143.872 199.438 194.439 199.438 198.213 201.705Z" fill="#17172E"/>
<path opacity="0.5882" d="M198.213 202.46C201.986 204.726 226.892 252.32 226.892 252.32L198.213 302.179H140.853C140.853 302.179 112.173 256.852 112.173 252.32C112.173 247.787 137.079 204.726 140.853 202.46C144.627 200.194 194.439 200.194 198.213 202.46Z" fill="#17172E"/>
<path opacity="0.5686" d="M198.213 203.216C202.741 205.482 226.892 252.32 226.892 252.32L198.213 302.179H140.853C140.853 302.179 112.173 257.608 112.173 253.075C112.173 248.542 136.324 206.237 140.853 203.971C145.381 200.949 193.684 200.949 198.213 203.216Z" fill="#17172E"/>
<path opacity="0.549" d="M198.213 203.971C202.741 206.237 226.138 253.075 226.138 253.075L198.213 302.179H141.608C141.608 302.179 113.682 258.363 113.682 253.075C113.682 247.787 137.834 206.237 141.608 203.971C146.136 201.705 193.684 201.705 198.213 203.971Z" fill="#17172E"/>
<path opacity="0.5294" d="M198.213 204.727C202.741 206.993 226.138 253.075 226.138 253.075L198.213 302.179H142.362C142.362 302.179 114.437 259.119 114.437 253.831C114.437 248.543 137.834 207.748 142.362 205.482C146.891 202.46 193.684 202.46 198.213 204.727Z" fill="#17172E"/>
<path opacity="0.5098" d="M198.213 205.482C202.741 208.504 226.138 253.831 226.138 253.831L198.213 302.179H142.362C142.362 302.179 114.437 259.119 114.437 253.831C114.437 248.542 137.834 208.504 142.362 205.482C146.891 202.46 193.684 202.46 198.213 205.482Z" fill="#17172E"/>
<path opacity="0.4902" d="M198.213 206.237C203.496 209.259 226.138 253.831 226.138 253.831L198.213 302.179H143.117C143.117 302.179 115.192 259.874 115.192 254.586C115.192 248.543 137.834 209.259 143.117 206.993C147.645 203.216 192.929 203.216 198.213 206.237Z" fill="#17172E"/>
<path opacity="0.4706" d="M198.213 206.993C203.496 210.015 225.383 254.586 225.383 254.586L198.213 302.179H143.117C143.117 302.179 115.947 260.63 115.947 254.586C115.947 248.543 138.589 210.015 143.117 206.993C148.4 203.971 192.93 203.971 198.213 206.993Z" fill="#17172E"/>
<path opacity="0.451" d="M198.213 207.748C203.496 210.77 225.383 254.586 225.383 254.586L198.213 302.179H143.872C143.872 302.179 116.701 261.385 116.701 255.341C116.701 249.298 138.589 211.525 143.872 208.504C149.155 204.726 192.929 204.726 198.213 207.748Z" fill="#17172E"/>
<path opacity="0.4314" d="M198.213 208.504C203.496 211.525 225.383 255.341 225.383 255.341L198.213 302.179H143.872C143.872 302.179 116.701 261.385 116.701 255.341C116.701 249.298 138.589 211.525 143.872 208.504C149.91 205.482 192.929 205.482 198.213 208.504Z" fill="#17172E"/>
<path opacity="0.4118" d="M198.213 209.259C204.25 212.281 225.383 255.341 225.383 255.341L198.213 302.179H144.627C144.627 302.179 117.456 262.141 117.456 256.097C117.456 249.298 138.589 213.036 144.627 210.015C150.664 206.237 192.175 206.237 198.213 209.259Z" fill="#17172E"/>
<path opacity="0.3922" d="M198.213 210.015C204.25 213.036 224.628 256.097 224.628 256.097L198.213 302.179H145.381C145.381 302.179 118.966 262.896 118.966 256.097C118.966 249.298 139.343 213.036 145.381 210.015C150.664 206.237 192.175 206.237 198.213 210.015Z" fill="#17172E"/>
<path opacity="0.3725" d="M198.213 210.77C204.25 214.547 224.628 256.852 224.628 256.852L198.213 302.179H145.381C145.381 302.179 118.966 263.651 118.966 256.097C118.966 249.298 139.343 213.792 145.381 210.015C151.419 206.993 192.175 206.993 198.213 210.77Z" fill="#17172E"/>
<path opacity="0.3529" d="M198.213 211.526C204.25 215.303 224.628 256.852 224.628 256.852L198.213 302.179H146.136C146.136 302.179 119.72 264.407 119.72 256.852C119.72 249.298 139.343 215.303 146.136 211.526C152.174 207.748 192.175 207.748 198.213 211.526Z" fill="#17172E"/>
<path opacity="0.3333" d="M198.213 212.281C205.005 216.058 223.874 257.608 223.874 257.608L198.213 302.935H146.136C146.136 302.935 120.475 265.162 120.475 257.608C120.475 250.053 140.098 216.058 146.136 212.281C152.929 208.504 192.175 208.504 198.213 212.281Z" fill="#17172E"/>
<path opacity="0.3137" d="M198.213 213.036C205.005 216.814 223.874 257.608 223.874 257.608L198.213 302.179H146.891C146.891 302.179 121.23 265.162 121.23 257.608C121.23 250.053 140.098 216.814 146.891 213.036C153.683 209.259 191.42 209.259 198.213 213.036Z" fill="#17172E"/>
<path opacity="0.2941" d="M198.213 213.792C205.005 217.569 223.874 258.363 223.874 258.363L198.213 302.179H146.891C146.891 302.179 121.23 265.918 121.23 257.608C121.23 250.053 140.098 217.569 146.891 213.036C154.438 210.015 191.42 210.015 198.213 213.792Z" fill="#17172E"/>
<path opacity="0.2745" d="M198.213 214.547C205.005 218.324 223.874 258.363 223.874 258.363L198.213 302.179H147.646C147.646 302.179 121.985 266.673 121.985 258.363C121.985 250.053 140.098 218.324 147.646 214.547C154.438 210.015 191.42 210.015 198.213 214.547Z" fill="#17172E"/>
<path opacity="0.2549" d="M198.213 215.303C205.76 219.835 223.119 259.119 223.119 259.119L198.213 302.179H148.4C148.4 302.179 123.494 266.673 123.494 258.363C123.494 250.053 141.608 219.08 148.4 214.547C155.193 210.77 191.42 210.77 198.213 215.303Z" fill="#17172E"/>
<path opacity="0.2353" d="M198.213 216.058C205.76 220.591 223.119 259.119 223.119 259.119L198.213 302.179H148.4C148.4 302.179 123.494 267.429 123.494 259.119C123.494 250.809 140.853 220.591 148.4 216.058C155.948 211.526 190.665 211.526 198.213 216.058Z" fill="#17172E"/>
<path opacity="0.2157" d="M198.213 216.814C205.76 221.346 223.119 259.874 223.119 259.874L198.213 302.179H149.155C149.155 302.179 124.249 268.184 124.249 259.119C124.249 250.053 141.608 220.591 149.155 216.058C156.702 212.281 190.665 212.281 198.213 216.814Z" fill="#17172E"/>
<path opacity="0.1961" d="M198.213 217.569C205.76 222.102 222.364 259.874 222.364 259.874L198.213 302.179H149.155C149.155 302.179 125.003 268.939 125.003 259.874C125.003 250.809 141.608 222.102 149.155 217.569C157.457 213.036 190.665 213.036 198.213 217.569Z" fill="#17172E"/>
<path opacity="0.1765" d="M198.213 218.325C206.515 222.857 222.364 260.63 222.364 260.63L198.213 302.179H149.91C149.91 302.179 125.758 269.695 125.758 259.874C125.758 250.809 142.362 222.102 149.91 217.569C158.212 213.792 190.665 213.792 198.213 218.325Z" fill="#17172E"/>
<path opacity="0.1569" d="M198.213 219.08C206.515 223.613 222.364 260.63 222.364 260.63L198.213 302.179H149.91C149.91 302.179 125.758 269.695 125.758 260.63C125.758 251.564 141.608 223.613 149.91 219.08C158.212 213.792 189.911 213.792 198.213 219.08Z" fill="#17172E"/>
<path opacity="0.1373" d="M198.213 219.836C206.515 224.368 222.364 261.385 222.364 261.385L198.213 302.179H150.664C150.664 302.179 126.513 270.451 126.513 260.63C126.513 250.809 141.608 224.368 150.664 219.08C158.966 214.547 189.911 214.547 198.213 219.836Z" fill="#17172E"/>
<path opacity="0.1176" d="M198.213 220.591C206.515 225.879 221.609 261.385 221.609 261.385L198.213 302.179H151.419C151.419 302.179 128.022 271.206 128.022 261.385C128.022 251.564 143.117 225.124 151.419 220.591C159.721 215.303 189.911 215.303 198.213 220.591Z" fill="#17172E"/>
<path opacity="0.0980392" d="M198.213 221.346C207.269 226.634 221.609 262.14 221.609 262.14L198.213 302.179H151.419C151.419 302.179 128.022 271.961 128.022 261.385C128.022 251.564 142.362 225.879 151.419 220.591C160.476 216.058 189.911 216.058 198.213 221.346Z" fill="#17172E"/>
<path opacity="0.0784314" d="M198.213 222.102C207.269 227.39 221.609 262.141 221.609 262.141L198.213 302.179H152.174C152.174 302.179 128.777 271.961 128.777 262.141C128.777 251.564 143.117 227.39 152.174 222.102C161.231 216.814 189.156 216.814 198.213 222.102Z" fill="#17172E"/>
<path opacity="0.0588235" d="M198.213 222.857C207.269 228.145 220.855 262.896 220.855 262.896L198.213 302.935H152.174C152.174 302.935 129.532 273.472 129.532 262.896C129.532 252.32 143.117 228.145 152.174 222.857C161.985 217.569 189.156 217.569 198.213 222.857Z" fill="#17172E"/>
<path opacity="0.0392157" d="M198.213 223.613C207.269 228.901 220.855 262.896 220.855 262.896L198.213 302.179H152.929C152.929 302.179 130.287 273.472 130.287 262.896C130.287 252.32 143.872 228.901 152.929 223.613C161.985 217.569 189.156 217.569 198.213 223.613Z" fill="#17172E"/>
<path opacity="0.0196078" d="M198.213 224.368C208.024 229.656 220.855 263.651 220.855 263.651L198.213 302.935H152.929C152.929 302.935 130.287 274.983 130.287 263.651C130.287 253.075 143.117 230.412 152.929 224.368C162.74 218.325 189.156 218.325 198.213 224.368Z" fill="#17172E"/>
<path d="M199.722 667.816L234.44 728.252L199.722 788.688H129.532L94.8141 728.252L129.532 667.816H199.722Z" fill="url(#paint2_linear_13_106)"/>
<path d="M198.213 670.838L231.421 728.252L198.213 785.666H131.796L98.5878 728.252L131.796 670.838H198.213Z" fill="url(#paint3_linear_13_106)"/>
<path d="M198.213 670.838L231.421 728.252L198.213 785.666H131.796L98.5878 728.252L131.796 670.838H198.213Z" fill="#17172E"/>
<path opacity="0.9804" d="M198.213 671.593L231.421 729.007L198.213 786.422H132.551C132.551 786.422 99.3425 729.763 99.3425 729.007C99.3425 729.007 131.796 671.593 132.551 671.593C131.796 670.838 197.458 670.838 198.213 671.593Z" fill="#17172E"/>
<path opacity="0.9608" d="M198.213 672.349C198.967 672.349 230.666 729.007 230.666 729.007L198.213 785.666H132.551L100.097 729.007C100.097 728.252 132.551 672.349 132.551 672.349C132.551 671.593 197.458 671.593 198.213 672.349Z" fill="#17172E"/>
<path opacity="0.9412" d="M198.213 673.104C198.967 673.104 230.666 729.763 230.666 729.763L198.213 786.421H133.306C133.306 786.421 100.852 730.518 100.852 729.763C100.852 729.007 132.551 673.86 133.306 673.104C133.306 672.349 197.458 672.349 198.213 673.104Z" fill="#17172E"/>
<path opacity="0.9216" d="M198.213 673.86C198.967 674.615 230.666 729.763 230.666 729.763L198.213 785.666H133.306C133.306 785.666 100.852 730.518 100.852 729.763C100.852 729.007 132.551 673.86 133.306 673.86C134.06 673.104 197.458 673.104 198.213 673.86Z" fill="#17172E"/>
<path opacity="0.902" d="M198.213 674.615C198.967 675.371 230.666 730.518 230.666 730.518L198.213 786.421H134.06C134.06 786.421 101.607 732.029 101.607 730.518C101.607 729.763 132.551 675.371 134.06 674.615C134.815 673.86 196.703 673.86 198.213 674.615Z" fill="#17172E"/>
<path opacity="0.8824" d="M198.213 675.371C199.722 676.126 229.911 730.518 229.911 730.518L198.213 785.666H134.06C134.06 785.666 102.362 731.274 102.362 730.518C102.362 729.007 133.306 676.126 134.06 675.371C135.57 674.615 196.703 674.615 198.213 675.371Z" fill="#17172E"/>
<path opacity="0.8627" d="M198.213 676.126C199.722 676.882 229.911 731.274 229.911 731.274L198.213 786.421H134.815C134.815 786.421 103.116 732.785 103.116 731.274C103.116 729.763 133.306 676.882 134.815 676.126C135.57 674.615 196.703 674.615 198.213 676.126Z" fill="#17172E"/>
<path opacity="0.8431" d="M198.213 676.126C199.722 676.881 229.911 730.518 229.911 730.518L198.213 784.91H135.57C135.57 784.91 103.871 732.029 103.871 730.518C103.871 729.007 134.06 676.881 135.57 676.126C136.325 675.37 196.703 675.37 198.213 676.126Z" fill="#17172E"/>
<path opacity="0.8235" d="M198.213 676.882C199.722 677.637 229.157 731.274 229.157 731.274L198.213 785.666H135.57C135.57 785.666 104.626 733.54 104.626 731.274C104.626 729.007 134.06 677.637 135.57 676.882C137.079 676.126 195.948 676.126 198.213 676.882Z" fill="#17172E"/>
<path opacity="0.8039" d="M198.213 677.637C200.477 678.392 229.157 731.274 229.157 731.274L198.213 784.911H136.324C136.324 784.911 105.38 733.54 105.38 731.274C105.38 729.007 134.815 678.392 136.324 677.637C137.834 676.881 195.948 676.881 198.213 677.637Z" fill="#17172E"/>
<path opacity="0.7843" d="M198.213 678.393C200.477 679.903 229.157 732.029 229.157 732.029L198.213 785.666H136.324C136.324 785.666 105.38 734.296 105.38 732.029C105.38 729.763 134.06 679.903 136.324 678.393C138.589 677.637 195.948 677.637 198.213 678.393Z" fill="#17172E"/>
<path opacity="0.7647" d="M198.213 679.148C200.477 680.659 229.157 732.029 229.157 732.029L198.213 784.911H137.079C137.079 784.911 106.135 734.296 106.135 732.029C106.135 729.763 134.815 679.903 137.079 679.148C139.343 678.392 195.948 678.392 198.213 679.148Z" fill="#17172E"/>
<path opacity="0.7451" d="M198.213 679.903C200.477 681.414 228.402 732.785 228.402 732.785L198.213 785.666H137.079C137.079 785.666 106.89 735.806 106.89 732.785C106.89 729.763 134.815 681.414 137.079 679.903C139.343 679.148 195.194 679.148 198.213 679.903Z" fill="#17172E"/>
<path opacity="0.7255" d="M198.213 680.659C201.232 682.169 228.402 732.784 228.402 732.784L198.213 784.91H137.834C137.834 784.91 107.645 735.806 107.645 732.784C107.645 729.763 135.57 682.169 137.834 680.659C140.098 679.148 195.194 679.148 198.213 680.659Z" fill="#17172E"/>
<path opacity="0.7059" d="M198.213 681.414C201.232 682.925 228.402 733.54 228.402 733.54L198.213 785.666H137.834C137.834 785.666 107.645 736.562 107.645 733.54C107.645 730.518 134.815 682.925 137.834 681.414C140.853 679.903 195.194 679.903 198.213 681.414Z" fill="#17172E"/>
<path opacity="0.6863" d="M198.213 682.17C201.232 683.68 227.647 733.54 227.647 733.54L198.213 784.91H138.589C138.589 784.91 109.154 736.562 109.154 733.54C109.154 729.763 135.57 683.68 138.589 682.17C141.608 680.659 195.194 680.659 198.213 682.17Z" fill="#17172E"/>
<path opacity="0.6667" d="M198.213 682.925C201.232 684.436 227.647 734.295 227.647 734.295L198.213 785.666H138.589C138.589 785.666 109.154 738.073 109.154 734.295C109.154 730.518 135.57 685.191 138.589 682.925C142.362 681.414 195.194 681.414 198.213 682.925Z" fill="#17172E"/>
<path opacity="0.6471" d="M198.213 683.681C201.986 685.947 227.647 734.296 227.647 734.296L198.213 784.911H139.343C139.343 784.911 109.909 738.073 109.909 734.296C109.909 730.518 135.57 685.191 139.343 683.681C143.117 682.17 194.439 682.17 198.213 683.681Z" fill="#17172E"/>
<path opacity="0.6275" d="M198.213 684.436C201.986 686.702 227.647 735.051 227.647 735.051L198.213 785.666H140.098C140.098 785.666 110.664 739.584 110.664 735.051C110.664 730.518 136.325 686.702 140.098 684.436C143.117 682.925 194.439 682.925 198.213 684.436Z" fill="#17172E"/>
<path opacity="0.6078" d="M198.213 685.191C201.986 687.458 226.892 735.051 226.892 735.051L198.213 784.911H140.098C140.098 784.911 111.418 738.828 111.418 735.051C111.418 730.518 136.324 686.702 140.098 685.191C143.872 682.925 194.439 682.925 198.213 685.191Z" fill="#17172E"/>
<path opacity="0.5882" d="M198.213 685.947C201.986 688.213 226.892 735.806 226.892 735.806L198.213 785.666H140.853C140.853 785.666 112.173 740.339 112.173 735.806C112.173 731.274 137.079 688.213 140.853 685.947C144.627 683.68 194.439 683.68 198.213 685.947Z" fill="#17172E"/>
<path opacity="0.5686" d="M198.213 686.702C202.741 688.969 226.892 735.806 226.892 735.806L198.213 784.91H140.853C140.853 784.91 112.173 740.339 112.173 735.806C112.173 731.274 136.324 688.969 140.853 686.702C145.381 684.436 193.684 684.436 198.213 686.702Z" fill="#17172E"/>
<path opacity="0.549" d="M198.213 687.458C202.741 689.724 226.138 736.562 226.138 736.562L198.213 785.666H141.608C141.608 785.666 113.682 741.85 113.682 736.562C113.682 731.274 137.834 689.724 141.608 687.458C146.136 685.191 193.684 685.191 198.213 687.458Z" fill="#17172E"/>
<path opacity="0.5294" d="M198.213 688.213C202.741 690.48 226.138 736.562 226.138 736.562L198.213 784.911H142.362C142.362 784.911 114.437 741.85 114.437 736.562C114.437 731.274 137.834 690.48 142.362 688.213C146.891 685.947 193.684 685.947 198.213 688.213Z" fill="#17172E"/>
<path opacity="0.5098" d="M198.213 688.969C202.741 691.99 226.138 737.317 226.138 737.317L198.213 785.666H142.362C142.362 785.666 114.437 742.605 114.437 737.317C114.437 732.029 137.834 691.99 142.362 688.969C146.891 686.702 193.684 686.702 198.213 688.969Z" fill="#17172E"/>
<path opacity="0.4902" d="M198.213 689.724C203.496 692.746 226.138 737.317 226.138 737.317L198.213 784.911H143.117C143.117 784.911 115.192 742.605 115.192 737.317C115.192 731.274 137.834 691.99 143.117 689.724C147.645 686.702 192.929 686.702 198.213 689.724Z" fill="#17172E"/>
<path opacity="0.4706" d="M198.213 690.479C203.496 693.501 225.383 738.073 225.383 738.073L198.213 785.666H143.117C143.117 785.666 115.947 744.116 115.947 738.073C115.947 732.029 138.589 693.501 143.117 690.479C148.4 687.458 192.93 687.458 198.213 690.479Z" fill="#17172E"/>
<path opacity="0.451" d="M198.213 691.235C203.496 694.257 225.383 738.073 225.383 738.073L198.213 784.91H143.872C143.872 784.91 116.701 744.116 116.701 738.073C116.701 732.029 138.589 694.257 143.872 691.235C149.155 688.213 192.929 688.213 198.213 691.235Z" fill="#17172E"/>
<path opacity="0.4314" d="M198.213 691.99C203.496 695.012 225.383 738.828 225.383 738.828L198.213 785.666H143.872C143.872 785.666 116.701 744.872 116.701 738.828C116.701 732.785 138.589 695.012 143.872 691.99C149.91 688.969 192.929 688.969 198.213 691.99Z" fill="#17172E"/>
<path opacity="0.4118" d="M198.213 692.746C204.25 695.768 225.383 738.828 225.383 738.828L198.213 784.911H144.627C144.627 784.911 117.456 744.872 117.456 738.828C117.456 732.029 138.589 695.768 144.627 692.746C150.664 689.724 192.175 689.724 198.213 692.746Z" fill="#17172E"/>
<path opacity="0.3922" d="M198.213 693.501C204.25 696.523 224.628 739.584 224.628 739.584L198.213 785.666H145.381C145.381 785.666 118.966 746.383 118.966 739.584C118.966 732.784 139.343 696.523 145.381 693.501C150.664 690.479 192.175 690.479 198.213 693.501Z" fill="#17172E"/>
<path opacity="0.3725" d="M198.213 694.257C204.25 698.034 224.628 740.339 224.628 740.339L198.213 786.421H145.381C145.381 786.421 118.966 747.894 118.966 740.339C118.966 733.54 139.343 698.034 145.381 694.257C151.419 690.48 192.175 690.48 198.213 694.257Z" fill="#17172E"/>
<path opacity="0.3529" d="M198.213 695.012C204.25 698.789 224.628 740.339 224.628 740.339L198.213 785.666H146.136C146.136 785.666 119.72 747.893 119.72 740.339C119.72 732.785 139.343 698.789 146.136 695.012C152.174 691.235 192.175 691.235 198.213 695.012Z" fill="#17172E"/>
<path opacity="0.3333" d="M198.213 695.768C205.005 699.545 223.874 741.095 223.874 741.095L198.213 786.421H146.136C146.136 786.421 120.475 748.649 120.475 741.095C120.475 733.54 140.098 699.545 146.136 695.768C152.929 691.991 192.175 691.991 198.213 695.768Z" fill="#17172E"/>
<path opacity="0.3137" d="M198.213 696.523C205.005 700.3 223.874 741.095 223.874 741.095L198.213 785.666H146.891C146.891 785.666 121.23 748.649 121.23 741.095C121.23 733.54 140.098 700.3 146.891 696.523C153.683 692.746 191.42 692.746 198.213 696.523Z" fill="#17172E"/>
<path opacity="0.2941" d="M198.213 697.278C205.005 701.056 223.874 741.85 223.874 741.85L198.213 786.421H146.891C146.891 786.421 121.23 750.16 121.23 741.85C121.23 734.295 140.098 701.811 146.891 697.278C154.438 693.501 191.42 693.501 198.213 697.278Z" fill="#17172E"/>
<path opacity="0.2745" d="M198.213 698.034C205.005 701.811 223.874 741.85 223.874 741.85L198.213 785.666H147.646C147.646 785.666 121.985 750.16 121.985 741.85C121.985 733.54 140.098 701.811 147.646 698.034C154.438 694.257 191.42 694.257 198.213 698.034Z" fill="#17172E"/>
<path opacity="0.2549" d="M198.213 698.789C205.76 703.322 223.119 742.605 223.119 742.605L198.213 786.421H148.4C148.4 786.421 123.494 750.915 123.494 742.605C123.494 734.295 141.608 703.322 148.4 698.789C155.193 694.257 191.42 694.257 198.213 698.789Z" fill="#17172E"/>
<path opacity="0.2353" d="M198.213 699.545C205.76 704.078 223.119 742.606 223.119 742.606L198.213 785.666H148.4C148.4 785.666 123.494 750.916 123.494 742.606C123.494 734.296 140.853 704.078 148.4 699.545C155.948 695.012 190.665 695.012 198.213 699.545Z" fill="#17172E"/>
<path opacity="0.2157" d="M198.213 700.3C205.76 704.833 223.119 743.361 223.119 743.361L198.213 786.421H149.155C149.155 786.421 124.249 752.426 124.249 743.361C124.249 734.296 141.608 704.833 149.155 700.3C156.702 695.768 190.665 695.768 198.213 700.3Z" fill="#17172E"/>
<path opacity="0.1961" d="M198.213 701.056C205.76 705.588 222.364 743.361 222.364 743.361L198.213 785.666H149.155C149.155 785.666 125.003 752.426 125.003 743.361C125.003 734.295 141.608 705.588 149.155 701.056C157.457 696.523 190.665 696.523 198.213 701.056Z" fill="#17172E"/>
<path opacity="0.1765" d="M198.213 701.811C206.515 706.344 222.364 744.116 222.364 744.116L198.213 786.422H149.91C149.91 786.422 125.758 753.937 125.758 744.116C125.758 735.051 142.362 706.344 149.91 701.811C158.212 697.279 190.665 697.279 198.213 701.811Z" fill="#17172E"/>
<path opacity="0.1569" d="M198.213 702.567C206.515 707.099 222.364 744.116 222.364 744.116L198.213 785.666H149.91C149.91 785.666 125.758 753.182 125.758 744.116C125.758 735.051 141.608 707.099 149.91 702.567C158.212 698.034 189.911 698.034 198.213 702.567Z" fill="#17172E"/>
<path opacity="0.1373" d="M198.213 703.322C206.515 707.855 222.364 744.872 222.364 744.872L198.213 786.421H150.664C150.664 786.421 126.513 754.693 126.513 744.872C126.513 735.051 141.608 708.61 150.664 703.322C158.966 698.789 189.911 698.789 198.213 703.322Z" fill="#17172E"/>
<path opacity="0.1176" d="M198.213 704.077C206.515 709.366 221.609 744.872 221.609 744.872L198.213 785.666H151.419C151.419 785.666 128.022 754.692 128.022 744.872C128.022 735.051 143.117 708.61 151.419 704.077C159.721 698.789 189.911 698.789 198.213 704.077Z" fill="#17172E"/>
<path opacity="0.0980392" d="M198.213 704.833C207.269 710.121 221.609 745.627 221.609 745.627L198.213 786.421H151.419C151.419 786.421 128.022 756.203 128.022 745.627C128.022 735.806 142.362 710.121 151.419 704.833C160.476 699.545 189.911 699.545 198.213 704.833Z" fill="#17172E"/>
<path opacity="0.0784314" d="M198.213 705.588C207.269 710.877 221.609 745.627 221.609 745.627L198.213 785.666H152.174C152.174 785.666 128.777 755.448 128.777 745.627C128.777 735.051 143.117 710.877 152.174 705.588C161.231 700.3 189.156 700.3 198.213 705.588Z" fill="#17172E"/>
<path opacity="0.0588235" d="M198.213 706.344C207.269 711.632 220.855 746.383 220.855 746.383L198.213 786.421H152.174C152.174 786.421 129.532 756.959 129.532 746.383C129.532 735.806 143.117 711.632 152.174 706.344C161.985 701.056 189.156 701.056 198.213 706.344Z" fill="#17172E"/>
<path opacity="0.0392157" d="M198.213 707.099C207.269 712.388 220.855 746.383 220.855 746.383L198.213 785.666H152.929C152.929 785.666 130.287 756.959 130.287 746.383C130.287 735.806 143.872 712.388 152.929 707.099C161.985 701.811 189.156 701.811 198.213 707.099Z" fill="#17172E"/>
<path opacity="0.0196078" d="M198.213 707.855C208.024 713.143 220.855 747.138 220.855 747.138L198.213 786.421H152.929C152.929 786.421 130.287 758.47 130.287 747.138C130.287 736.562 143.117 713.898 152.929 707.855C162.74 702.567 189.156 702.567 198.213 707.855Z" fill="#17172E"/>
<path d="M408.783 305.201L443.501 365.637L408.783 426.073H339.348L303.875 365.637L339.348 305.201H408.783Z" fill="url(#paint4_linear_13_106)"/>
<path d="M407.274 307.467L440.482 365.637L407.274 423.051H340.857L307.649 365.637L340.857 307.467H407.274Z" fill="url(#paint5_linear_13_106)"/>
<path d="M407.274 307.467L440.482 365.637L407.274 423.051H340.857L307.649 365.637L340.857 307.467H407.274Z" fill="#17172E"/>
<path opacity="0.9804" d="M407.274 308.223L440.482 365.637L407.274 423.051H341.612C341.612 423.051 308.404 366.392 308.404 365.637C308.404 365.637 340.857 308.223 341.612 308.223H407.274Z" fill="#17172E"/>
<path opacity="0.9608" d="M407.274 308.978C408.028 308.978 439.727 365.637 439.727 365.637L407.274 423.051H341.612L309.158 366.392C309.158 365.637 341.612 309.734 341.612 309.734C341.612 308.978 406.519 308.978 407.274 308.978Z" fill="#17172E"/>
<path opacity="0.9412" d="M407.274 309.734C408.028 309.734 439.727 366.392 439.727 366.392L407.274 423.051H342.367C342.367 423.051 309.913 367.148 309.913 366.392C309.913 365.637 341.612 310.489 342.367 309.734C342.367 309.734 406.519 309.734 407.274 309.734Z" fill="#17172E"/>
<path opacity="0.9216" d="M407.274 310.489C408.028 311.244 439.727 366.392 439.727 366.392L407.274 423.051H342.367C342.367 423.051 309.913 367.903 309.913 367.148C309.913 366.392 341.612 311.244 342.367 311.244C343.121 310.489 406.519 310.489 407.274 310.489Z" fill="#17172E"/>
<path opacity="0.902" d="M407.274 311.245C408.028 312 439.727 367.148 439.727 367.148L407.274 423.051H343.121C343.121 423.051 310.668 368.659 310.668 367.148C310.668 366.392 341.612 312 343.121 311.245C343.876 311.245 406.519 311.245 407.274 311.245Z" fill="#17172E"/>
<path opacity="0.8824" d="M407.274 312C408.783 312.755 438.973 367.148 438.973 367.148L407.274 423.051H343.121C343.121 423.051 311.423 368.658 311.423 367.903C311.423 366.392 342.367 313.511 343.121 312.755C344.631 311.244 405.764 311.244 407.274 312Z" fill="#17172E"/>
<path opacity="0.8627" d="M407.274 312.755C408.783 313.511 438.972 367.903 438.972 367.903L407.274 423.051H343.876C343.876 423.051 312.177 369.414 312.177 367.903C312.177 366.392 342.367 313.511 343.876 312.755C345.386 312 405.764 312 407.274 312.755Z" fill="#17172E"/>
<path opacity="0.8431" d="M407.274 313.511C408.783 314.266 438.972 367.903 438.972 367.903L407.274 423.051H344.631C344.631 423.051 312.932 370.169 312.932 368.659C312.932 367.148 343.121 315.022 344.631 314.266C345.386 312.755 405.764 312.755 407.274 313.511Z" fill="#17172E"/>
<path opacity="0.8235" d="M407.274 314.266C408.783 315.022 438.218 368.659 438.218 368.659L407.274 423.051H344.631C344.631 423.051 313.687 370.925 313.687 368.659C313.687 366.392 343.121 315.022 344.631 314.266C346.14 313.511 405.764 313.511 407.274 314.266Z" fill="#17172E"/>
<path opacity="0.8039" d="M407.274 315.022C409.538 315.777 438.218 368.659 438.218 368.659L407.274 423.051H345.386C345.386 423.051 314.442 371.68 314.442 369.414C314.442 367.148 343.876 316.533 345.386 315.777C346.895 314.266 405.01 314.266 407.274 315.022Z" fill="#17172E"/>
<path opacity="0.7843" d="M407.274 315.777C409.538 317.288 438.218 369.414 438.218 369.414L407.274 423.051H345.386C345.386 423.051 314.442 371.68 314.442 369.414C314.442 367.148 343.121 317.288 345.386 315.777C347.65 315.022 405.01 315.022 407.274 315.777Z" fill="#17172E"/>
<path opacity="0.7647" d="M407.274 316.533C409.538 318.044 438.218 369.414 438.218 369.414L407.274 422.295H346.14C346.14 422.295 315.196 371.68 315.196 369.414C315.196 367.148 343.876 317.288 346.14 316.533C348.404 315.777 405.009 315.777 407.274 316.533Z" fill="#17172E"/>
<path opacity="0.7451" d="M407.274 317.288C409.538 318.799 437.463 370.17 437.463 370.17L407.274 423.051H346.14C346.14 423.051 315.951 373.191 315.951 370.17C315.951 367.148 343.876 318.799 346.14 317.288C349.159 315.777 405.009 315.777 407.274 317.288Z" fill="#17172E"/>
<path opacity="0.7255" d="M407.274 318.044C410.293 319.554 437.463 370.169 437.463 370.169L407.274 422.295H346.895C346.895 422.295 316.706 373.191 316.706 370.169C316.706 367.148 344.631 319.554 346.895 318.044C349.159 316.533 404.255 316.533 407.274 318.044Z" fill="#17172E"/>
<path opacity="0.7059" d="M407.274 318.799C410.293 320.31 437.463 370.925 437.463 370.925L407.274 423.051H346.895C346.895 423.051 316.706 373.947 316.706 370.925C316.706 367.903 343.876 320.31 346.895 318.799C349.914 317.288 404.255 317.288 407.274 318.799Z" fill="#17172E"/>
<path opacity="0.6863" d="M407.274 319.554C410.293 321.065 436.708 370.925 436.708 370.925L407.274 423.051H347.65C347.65 423.051 318.215 374.702 318.215 371.68C318.215 367.903 344.631 321.821 347.65 320.31C350.669 318.044 404.255 318.044 407.274 319.554Z" fill="#17172E"/>
<path opacity="0.6667" d="M407.274 320.31C410.293 321.821 436.708 371.68 436.708 371.68L407.274 423.051H348.404C348.404 423.051 318.97 375.458 318.97 371.68C318.97 367.903 345.386 322.576 348.404 320.31C351.423 318.799 404.255 318.799 407.274 320.31Z" fill="#17172E"/>
<path opacity="0.6471" d="M407.274 321.065C411.047 323.332 436.708 371.68 436.708 371.68L407.274 423.051H348.404C348.404 423.051 318.97 376.213 318.97 372.436C318.97 368.658 344.631 323.332 348.404 321.821C352.178 319.554 404.255 319.554 407.274 321.065Z" fill="#17172E"/>
<path opacity="0.6275" d="M407.274 321.821C411.047 324.087 436.708 372.436 436.708 372.436L407.274 423.051H349.159C349.159 423.051 319.725 376.969 319.725 372.436C319.725 367.903 345.386 324.087 349.159 321.821C352.933 319.555 403.5 319.555 407.274 321.821Z" fill="#17172E"/>
<path opacity="0.6078" d="M407.274 322.576C411.047 324.843 435.954 372.436 435.954 372.436L407.274 423.051H349.159C349.159 423.051 320.479 376.968 320.479 373.191C320.479 368.659 345.386 324.843 349.159 323.332C352.933 320.31 403.5 320.31 407.274 322.576Z" fill="#17172E"/>
<path opacity="0.5882" d="M407.274 323.332C411.047 325.598 435.954 373.191 435.954 373.191L407.274 423.051H349.914C349.914 423.051 321.234 377.724 321.234 373.191C321.234 368.658 346.14 325.598 349.914 323.332C353.688 321.065 403.5 321.065 407.274 323.332Z" fill="#17172E"/>
<path opacity="0.5686" d="M407.274 324.087C411.802 326.354 435.954 373.191 435.954 373.191L407.274 423.051H349.914C349.914 423.051 321.234 378.479 321.234 373.947C321.234 369.414 345.386 327.109 349.914 324.843C354.442 321.821 403.5 321.821 407.274 324.087Z" fill="#17172E"/>
<path opacity="0.549" d="M407.274 324.843C411.802 327.109 435.199 373.947 435.199 373.947L407.274 423.051H350.669C350.669 423.051 322.744 379.235 322.744 373.947C322.744 368.659 346.895 327.109 350.669 324.843C355.197 322.576 402.745 322.576 407.274 324.843Z" fill="#17172E"/>
<path opacity="0.5294" d="M407.274 325.598C411.802 327.864 435.199 373.947 435.199 373.947L407.274 423.051H351.423C351.423 423.051 323.498 379.99 323.498 374.702C323.498 369.414 346.895 328.62 351.423 326.353C355.952 323.332 402.745 323.332 407.274 325.598Z" fill="#17172E"/>
<path opacity="0.5098" d="M407.274 326.354C411.802 329.375 435.199 374.702 435.199 374.702L407.274 423.051H351.423C351.423 423.051 323.498 379.99 323.498 374.702C323.498 369.414 346.895 329.375 351.423 326.354C356.707 323.332 402.745 323.332 407.274 326.354Z" fill="#17172E"/>
<path opacity="0.4902" d="M407.274 327.109C412.557 330.131 435.199 374.702 435.199 374.702L407.274 423.051H352.178C352.178 423.051 324.253 380.746 324.253 375.458C324.253 369.414 346.895 330.131 352.178 327.864C356.707 324.087 402.745 324.087 407.274 327.109Z" fill="#17172E"/>
<path opacity="0.4706" d="M407.274 327.864C412.557 330.886 434.444 375.458 434.444 375.458L407.274 423.051H352.178C352.178 423.051 325.008 381.501 325.008 375.458C325.008 369.414 347.65 330.886 352.178 327.864C357.461 324.843 401.991 324.843 407.274 327.864Z" fill="#17172E"/>
<path opacity="0.451" d="M407.274 328.62C412.557 331.642 434.444 375.458 434.444 375.458L407.274 423.051H352.933C352.933 423.051 325.763 382.257 325.763 376.213C325.763 370.169 347.65 332.397 352.933 329.375C358.216 325.598 401.991 325.598 407.274 328.62Z" fill="#17172E"/>
<path opacity="0.4314" d="M407.274 329.375C412.557 332.397 434.444 376.213 434.444 376.213L407.274 423.051H352.933C352.933 423.051 325.763 382.257 325.763 376.213C325.763 370.169 347.65 332.397 352.933 329.375C358.971 326.353 401.991 326.353 407.274 329.375Z" fill="#17172E"/>
<path opacity="0.4118" d="M407.274 330.131C413.312 333.153 434.444 376.213 434.444 376.213L407.274 423.051H353.688C353.688 423.051 326.517 383.012 326.517 376.969C326.517 370.169 347.65 333.908 353.688 330.886C359.726 327.109 401.991 327.109 407.274 330.131Z" fill="#17172E"/>
<path opacity="0.3922" d="M407.274 330.886C413.312 333.908 433.689 376.968 433.689 376.968L407.274 423.051H354.442C354.442 423.051 328.027 383.768 328.027 376.968C328.027 370.169 348.404 333.908 354.442 330.886C360.48 327.109 401.236 327.109 407.274 330.886Z" fill="#17172E"/>
<path opacity="0.3725" d="M407.274 331.642C413.312 335.419 433.689 377.724 433.689 377.724L407.274 423.051H354.442C354.442 423.051 328.027 384.523 328.027 376.968C328.027 370.169 348.404 334.663 354.442 330.886C360.48 327.864 401.236 327.864 407.274 331.642Z" fill="#17172E"/>
<path opacity="0.3529" d="M407.274 332.397C413.312 336.174 433.689 377.724 433.689 377.724L407.274 423.051H355.197C355.197 423.051 328.781 385.278 328.781 377.724C328.781 370.17 348.404 336.174 355.197 332.397C361.235 328.62 401.236 328.62 407.274 332.397Z" fill="#17172E"/>
<path opacity="0.3333" d="M407.274 333.153C414.066 336.93 432.935 378.479 432.935 378.479L407.274 423.806H355.197C355.197 423.806 329.536 386.034 329.536 378.479C329.536 370.925 349.159 336.93 355.197 333.153C361.99 329.375 401.236 329.375 407.274 333.153Z" fill="#17172E"/>
<path opacity="0.3137" d="M407.274 333.908C414.066 337.685 432.935 378.479 432.935 378.479L407.274 423.051H355.952C355.952 423.051 330.291 386.034 330.291 378.479C330.291 370.925 349.159 337.685 355.952 333.908C362.744 330.131 401.236 330.131 407.274 333.908Z" fill="#17172E"/>
<path opacity="0.2941" d="M407.274 334.664C414.066 338.441 432.935 379.235 432.935 379.235L407.274 423.051H355.952C355.952 423.051 330.291 386.789 330.291 378.479C330.291 370.925 349.159 338.441 355.952 333.908C363.499 330.886 400.481 330.886 407.274 334.664Z" fill="#17172E"/>
<path opacity="0.2745" d="M407.274 335.419C414.066 339.196 432.935 379.235 432.935 379.235L407.274 423.051H356.707C356.707 423.051 331.046 387.545 331.046 379.235C331.046 370.925 349.159 339.196 356.707 335.419C364.254 330.886 400.481 330.886 407.274 335.419Z" fill="#17172E"/>
<path opacity="0.2549" d="M407.274 336.174C414.821 340.707 432.18 379.99 432.18 379.99L407.274 423.051H357.461C357.461 423.051 332.555 387.545 332.555 379.235C332.555 370.925 350.669 339.951 357.461 335.419C364.254 331.642 400.481 331.642 407.274 336.174Z" fill="#17172E"/>
<path opacity="0.2353" d="M407.274 336.93C414.821 341.462 432.18 379.99 432.18 379.99L407.274 423.051H357.461C357.461 423.051 332.555 388.3 332.555 379.99C332.555 371.68 349.914 341.462 357.461 336.93C365.009 332.397 400.481 332.397 407.274 336.93Z" fill="#17172E"/>
<path opacity="0.2157" d="M407.274 337.685C414.821 342.218 432.18 380.746 432.18 380.746L407.274 423.051H358.216C358.216 423.051 333.31 389.056 333.31 379.99C333.31 370.925 350.669 341.462 358.216 336.93C365.763 333.153 399.726 333.153 407.274 337.685Z" fill="#17172E"/>
<path opacity="0.1961" d="M407.274 338.441C414.821 342.973 431.425 380.746 431.425 380.746L407.274 423.051H358.216C358.216 423.051 334.065 389.811 334.065 380.746C334.065 371.68 350.669 342.973 358.216 338.441C366.518 333.908 399.726 333.908 407.274 338.441Z" fill="#17172E"/>
<path opacity="0.1765" d="M407.274 339.196C415.576 343.729 431.425 381.501 431.425 381.501L407.274 423.051H358.971C358.971 423.051 334.819 390.567 334.819 380.746C334.819 371.68 351.423 342.973 358.971 338.441C367.273 334.663 399.726 334.664 407.274 339.196Z" fill="#17172E"/>
<path opacity="0.1569" d="M407.274 339.951C415.576 344.484 431.425 381.501 431.425 381.501L407.274 423.051H358.971C358.971 423.051 334.819 390.566 334.819 381.501C334.819 372.436 350.669 344.484 358.971 339.951C368.028 334.663 399.726 334.663 407.274 339.951Z" fill="#17172E"/>
<path opacity="0.1373" d="M407.274 340.707C415.576 345.24 431.425 382.257 431.425 382.257L407.274 423.051H359.726C359.726 423.051 335.574 391.322 335.574 381.501C335.574 371.68 350.669 345.24 359.726 339.952C368.028 335.419 398.972 335.419 407.274 340.707Z" fill="#17172E"/>
<path opacity="0.1176" d="M407.274 341.462C415.576 346.751 430.67 382.257 430.67 382.257L407.274 423.051H360.48C360.48 423.051 337.083 392.077 337.083 382.257C337.083 372.436 352.178 345.995 360.48 341.462C368.782 336.174 398.972 336.174 407.274 341.462Z" fill="#17172E"/>
<path opacity="0.0980392" d="M407.274 342.218C416.33 347.506 430.67 383.012 430.67 383.012L407.274 423.051H360.48C360.48 423.051 337.083 392.833 337.083 382.257C337.083 372.436 351.423 346.751 360.48 341.462C369.537 336.93 398.972 336.93 407.274 342.218Z" fill="#17172E"/>
<path opacity="0.0784314" d="M407.274 342.973C416.33 348.262 430.67 383.012 430.67 383.012L407.274 423.051H361.235C361.235 423.051 337.838 392.833 337.838 383.012C337.838 372.436 352.178 348.262 361.235 342.973C370.292 337.685 398.972 337.685 407.274 342.973Z" fill="#17172E"/>
<path opacity="0.0588235" d="M408.028 343.729C417.085 349.017 430.67 383.768 430.67 383.768L408.028 423.806H361.99C361.99 423.806 339.348 394.344 339.348 383.768C339.348 373.191 352.933 349.017 361.99 343.729C371.047 338.441 398.217 338.441 408.028 343.729Z" fill="#17172E"/>
<path opacity="0.0392157" d="M408.028 344.484C417.085 349.772 430.67 383.767 430.67 383.767L408.028 423.051H362.744C362.744 423.051 340.102 394.344 340.102 383.767C340.102 373.191 353.688 349.772 362.744 344.484C371.801 339.196 398.217 339.196 408.028 344.484Z" fill="#17172E"/>
<path opacity="0.0196078" d="M408.028 345.24C417.84 350.528 430.67 384.523 430.67 384.523L408.028 423.806H362.744C362.744 423.806 340.102 395.855 340.102 384.523C340.102 373.947 352.933 351.283 362.744 345.24C371.801 339.196 398.217 339.196 408.028 345.24Z" fill="#17172E"/>
<path d="M303.875 486.509L339.348 546.944L303.875 607.38H234.44L199.722 546.944L234.44 486.509H303.875Z" fill="url(#paint6_linear_13_106)"/>
<path d="M302.366 489.53L335.574 546.944L302.366 604.358H235.949L202.741 546.944L235.949 489.53H302.366Z" fill="url(#paint7_linear_13_106)"/>
<path d="M302.366 489.53L335.574 546.944L302.366 604.358H235.949L202.741 546.944L235.949 489.53H302.366Z" fill="#17172E"/>
<path opacity="0.9804" d="M302.366 489.53L335.574 546.944L302.366 604.358H235.949L202.741 546.944L235.949 489.53C236.704 489.53 302.366 489.53 302.366 489.53Z" fill="#17172E"/>
<path opacity="0.9608" d="M302.366 490.286C303.121 490.286 335.574 547.7 335.574 547.7L302.366 604.358H236.704C236.704 604.358 203.496 547.7 203.496 546.944C203.496 546.189 235.949 490.286 236.704 489.53C236.704 489.53 302.366 489.53 302.366 490.286Z" fill="#17172E"/>
<path opacity="0.9412" d="M302.366 490.286C303.121 491.041 335.574 546.944 335.574 546.944L302.366 604.358H236.704C236.704 604.358 203.496 548.455 203.496 547.7C203.496 546.944 235.949 491.041 236.704 491.041C237.459 490.286 301.611 490.286 302.366 490.286Z" fill="#17172E"/>
<path opacity="0.9216" d="M302.366 491.041C303.121 491.797 334.819 547.7 334.819 547.7L302.366 604.358H236.704C236.704 604.358 204.25 548.455 204.25 547.7C204.25 546.944 235.949 491.797 236.704 491.041C238.213 490.286 301.611 490.286 302.366 491.041Z" fill="#17172E"/>
<path opacity="0.902" d="M302.366 491.041C303.875 491.797 334.819 547.7 334.819 547.7L302.366 604.358H237.459C237.459 604.358 205.005 549.211 205.005 547.7C205.005 546.189 236.704 491.797 237.459 491.041C238.214 490.286 301.611 490.286 302.366 491.041Z" fill="#17172E"/>
<path opacity="0.8824" d="M302.366 491.797C303.875 492.552 334.819 548.455 334.819 548.455L302.366 604.358H237.459C237.459 604.358 205.005 549.966 205.005 547.7C205.005 546.189 235.949 491.797 237.459 491.041C238.968 491.041 300.856 491.041 302.366 491.797Z" fill="#17172E"/>
<path opacity="0.8627" d="M302.366 491.797C303.875 492.552 334.819 547.7 334.819 547.7L302.366 604.358H237.459C237.459 604.358 205.005 549.966 205.005 548.455C205.005 546.944 235.949 493.307 237.459 492.552C239.723 491.041 300.856 491.041 302.366 491.797Z" fill="#17172E"/>
<path opacity="0.8431" d="M302.366 492.552C303.875 493.307 334.819 548.455 334.819 548.455L302.366 604.358H238.213C238.213 604.358 205.76 550.721 205.76 548.455C205.76 546.189 235.949 493.307 238.213 492.552C239.723 491.796 300.856 491.796 302.366 492.552Z" fill="#17172E"/>
<path opacity="0.8235" d="M302.366 493.308C304.63 494.819 334.819 549.211 334.819 549.211L302.366 604.358H238.213C238.213 604.358 205.76 550.722 205.76 548.455C205.76 546.189 235.949 494.063 238.213 492.552C240.478 491.797 300.102 491.797 302.366 493.308Z" fill="#17172E"/>
<path opacity="0.8039" d="M302.366 493.307C304.63 494.818 334.065 548.455 334.065 548.455L302.366 604.358H238.214C238.214 604.358 206.515 551.477 206.515 549.211C206.515 546.189 235.949 494.818 238.214 494.063C240.478 491.796 300.102 491.797 302.366 493.307Z" fill="#17172E"/>
<path opacity="0.7843" d="M302.366 494.063C304.63 495.574 334.065 549.211 334.065 549.211L302.366 604.358H238.968C238.968 604.358 207.269 552.232 207.269 549.211C207.269 546.189 236.704 495.574 238.968 494.063C241.232 492.552 300.102 492.552 302.366 494.063Z" fill="#17172E"/>
<path opacity="0.7647" d="M302.366 494.063C305.385 495.574 334.065 549.211 334.065 549.211L302.366 604.358H238.968C238.968 604.358 207.269 552.232 207.269 549.211C207.269 546.189 235.949 495.574 238.968 494.063C241.987 492.552 300.102 492.552 302.366 494.063Z" fill="#17172E"/>
<path opacity="0.7451" d="M302.366 494.818C305.385 496.329 334.065 549.966 334.065 549.966L302.366 604.358H238.968C238.968 604.358 207.269 552.988 207.269 549.211C207.269 545.433 235.949 496.329 238.968 494.063C241.987 493.307 299.347 493.307 302.366 494.818Z" fill="#17172E"/>
<path opacity="0.7255" d="M302.366 494.818C305.385 496.329 334.065 549.211 334.065 549.211L302.366 604.358H239.723C239.723 604.358 208.024 553.743 208.024 549.966C208.024 546.189 235.949 497.085 239.723 495.574C242.742 493.307 299.347 493.307 302.366 494.818Z" fill="#17172E"/>
<path opacity="0.7059" d="M302.366 495.574C306.139 497.84 334.065 549.966 334.065 549.966L302.366 604.358H239.723C239.723 604.358 208.024 553.743 208.024 549.966C208.024 546.189 235.949 497.84 239.723 495.574C243.497 493.307 299.347 493.307 302.366 495.574Z" fill="#17172E"/>
<path opacity="0.6863" d="M302.366 496.329C306.139 498.596 333.31 550.721 333.31 550.721L302.366 604.358H239.723C239.723 604.358 208.779 554.499 208.779 549.966C208.779 545.433 236.704 497.84 239.723 495.574C243.497 494.063 298.592 494.063 302.366 496.329Z" fill="#17172E"/>
<path opacity="0.6667" d="M302.366 496.329C306.139 498.596 333.31 549.966 333.31 549.966L302.366 604.358H239.723C239.723 604.358 208.779 555.254 208.779 550.722C208.779 546.189 235.949 499.351 239.723 497.085C244.251 494.063 298.592 494.063 302.366 496.329Z" fill="#17172E"/>
<path opacity="0.6471" d="M302.366 497.085C306.139 499.351 333.31 550.721 333.31 550.721L302.366 604.358H240.478C240.478 604.358 209.534 555.254 209.534 550.721C209.534 546.189 236.704 499.351 240.478 497.085C244.251 494.063 298.592 494.063 302.366 497.085Z" fill="#17172E"/>
<path opacity="0.6275" d="M302.366 497.085C306.894 499.351 333.31 550.722 333.31 550.722L302.366 604.358H240.478C240.478 604.358 209.534 556.01 209.534 550.722C209.534 545.433 235.949 499.351 240.478 497.085C245.006 494.818 297.837 494.818 302.366 497.085Z" fill="#17172E"/>
<path opacity="0.6078" d="M302.366 497.84C306.894 500.862 333.31 551.477 333.31 551.477L302.366 604.358H240.478C240.478 604.358 209.534 556.01 209.534 550.722C209.534 545.433 235.949 500.107 240.478 497.085C245.761 494.818 297.837 494.818 302.366 497.84Z" fill="#17172E"/>
<path opacity="0.5882" d="M302.366 497.84C306.894 500.862 333.31 550.721 333.31 550.721L302.366 603.603H241.232C241.232 603.603 210.288 556.01 210.288 550.721C210.288 545.433 235.949 500.106 241.232 497.84C245.761 495.574 297.837 495.574 302.366 497.84Z" fill="#17172E"/>
<path opacity="0.5686" d="M302.366 498.596C307.649 501.617 332.555 551.477 332.555 551.477L302.366 604.358H241.232C241.232 604.358 211.043 557.521 211.043 551.477C211.043 545.433 236.704 501.617 241.232 498.596C246.516 495.574 297.083 495.574 302.366 498.596Z" fill="#17172E"/>
<path opacity="0.549" d="M302.366 498.596C307.649 501.617 332.555 551.477 332.555 551.477L302.366 604.358H241.232C241.232 604.358 211.043 557.521 211.043 551.477C211.043 545.433 235.949 501.617 241.232 498.596C247.27 495.574 297.083 495.574 302.366 498.596Z" fill="#17172E"/>
<path opacity="0.5294" d="M302.366 499.351C307.649 502.373 332.555 552.232 332.555 552.232L302.366 604.358H241.987C241.987 604.358 211.798 558.276 211.798 552.232C211.798 546.189 236.704 503.128 241.987 499.351C247.27 496.329 297.083 496.329 302.366 499.351Z" fill="#17172E"/>
<path opacity="0.5098" d="M302.366 500.107C308.404 503.128 332.555 552.233 332.555 552.233L302.366 604.358H241.987C241.987 604.358 211.798 559.032 211.798 552.233C211.798 545.433 235.949 503.128 241.987 500.107C248.025 496.329 297.083 496.329 302.366 500.107Z" fill="#17172E"/>
<path opacity="0.4902" d="M302.366 500.106C308.404 503.884 332.555 552.232 332.555 552.232L302.366 604.358H241.987C241.987 604.358 211.798 559.031 211.798 552.232C211.798 545.433 235.949 503.884 241.987 500.106C248.025 497.085 296.328 497.085 302.366 500.106Z" fill="#17172E"/>
<path opacity="0.4706" d="M302.366 500.862C308.404 504.639 332.555 552.988 332.555 552.988L302.366 605.114H242.742C242.742 605.114 212.553 560.542 212.553 552.988C212.553 546.189 235.949 504.639 242.742 500.862C248.78 497.085 296.328 497.085 302.366 500.862Z" fill="#17172E"/>
<path opacity="0.451" d="M302.366 500.862C309.158 504.639 331.8 552.232 331.8 552.232L302.366 604.358H242.742C242.742 604.358 213.307 559.787 213.307 552.988C213.307 545.433 236.704 505.395 242.742 501.617C249.534 497.085 296.328 497.085 302.366 500.862Z" fill="#17172E"/>
<path opacity="0.4314" d="M302.366 501.617C309.158 505.395 331.8 552.988 331.8 552.988L302.366 604.358H242.742C242.742 604.358 213.307 560.542 213.307 552.988C213.307 545.433 236.704 505.395 242.742 501.617C249.534 497.84 295.573 497.84 302.366 501.617Z" fill="#17172E"/>
<path opacity="0.4118" d="M302.366 501.617C309.158 505.395 331.8 552.988 331.8 552.988L302.366 604.358H243.497C243.497 604.358 214.062 561.298 214.062 552.988C214.062 544.678 236.704 505.395 243.497 501.617C250.289 497.84 295.573 497.84 302.366 501.617Z" fill="#17172E"/>
<path opacity="0.3922" d="M302.366 502.373C309.158 506.15 331.8 553.743 331.8 553.743L302.366 604.358H243.497C243.497 604.358 214.062 561.298 214.062 552.988C214.062 544.678 236.704 506.15 243.497 501.618C251.044 498.596 295.573 498.596 302.366 502.373Z" fill="#17172E"/>
<path opacity="0.3725" d="M302.366 503.128C309.913 507.661 331.8 553.743 331.8 553.743L302.366 604.358H243.497C243.497 604.358 214.062 562.053 214.062 553.743C214.062 545.433 235.949 506.906 243.497 503.128C251.044 498.596 294.818 498.596 302.366 503.128Z" fill="#17172E"/>
<path opacity="0.3529" d="M302.366 503.128C309.913 507.661 331.8 553.743 331.8 553.743L302.366 604.358H244.251C244.251 604.358 214.817 562.809 214.817 553.743C214.817 544.678 236.704 507.661 244.251 503.128C251.799 498.596 294.819 498.596 302.366 503.128Z" fill="#17172E"/>
<path opacity="0.3333" d="M302.366 503.884C309.913 508.416 331.8 554.499 331.8 554.499L302.366 604.358H244.251C244.251 604.358 214.817 562.809 214.817 553.743C214.817 544.678 235.949 507.661 244.251 503.128C251.799 499.351 294.819 499.351 302.366 503.884Z" fill="#17172E"/>
<path opacity="0.3137" d="M302.366 503.884C310.668 508.416 331.046 553.743 331.046 553.743L302.366 604.358H244.251C244.251 604.358 215.571 563.564 215.571 554.499C215.571 545.433 236.704 509.172 244.251 504.639C252.553 499.351 294.064 499.351 302.366 503.884Z" fill="#17172E"/>
<path opacity="0.2941" d="M302.366 504.639C310.668 509.172 331.046 554.499 331.046 554.499L302.366 604.358H245.006C245.006 604.358 216.326 563.564 216.326 554.499C216.326 544.678 236.704 509.172 245.006 504.639C253.308 499.351 294.064 499.351 302.366 504.639Z" fill="#17172E"/>
<path opacity="0.2745" d="M302.366 504.639C310.668 509.172 331.046 554.499 331.046 554.499L302.366 604.358H245.006C245.006 604.358 216.326 564.32 216.326 554.499C216.326 544.678 236.704 509.927 245.006 504.639C253.308 500.107 294.064 500.107 302.366 504.639Z" fill="#17172E"/>
<path opacity="0.2549" d="M302.366 505.395C311.423 510.683 331.046 555.254 331.046 555.254L302.366 604.358H245.006C245.006 604.358 216.326 565.075 216.326 554.499C216.326 544.678 235.949 509.927 245.006 504.639C254.063 500.106 294.064 500.106 302.366 505.395Z" fill="#17172E"/>
<path opacity="0.2353" d="M302.366 505.395C311.423 510.683 331.046 554.499 331.046 554.499L302.366 604.358H245.761C245.761 604.358 217.081 565.075 217.081 555.254C217.081 544.678 236.704 511.438 245.761 506.15C254.818 500.862 293.309 500.862 302.366 505.395Z" fill="#17172E"/>
<path opacity="0.2157" d="M302.366 506.15C311.423 511.438 331.046 555.254 331.046 555.254L302.366 604.358H245.761C245.761 604.358 217.081 565.831 217.081 555.254C217.081 544.678 235.949 511.438 245.761 506.15C254.818 500.862 293.309 500.862 302.366 506.15Z" fill="#17172E"/>
<path opacity="0.1961" d="M302.366 506.906C311.423 512.194 330.291 556.01 330.291 556.01L302.366 604.358H245.761C245.761 604.358 217.836 566.586 217.836 555.254C217.836 544.678 236.704 511.438 245.761 506.15C255.572 500.862 293.309 500.862 302.366 506.906Z" fill="#17172E"/>
<path opacity="0.1765" d="M302.366 506.905C312.177 512.194 330.291 555.254 330.291 555.254L302.366 604.358H246.516C246.516 604.358 218.59 566.586 218.59 556.01C218.59 544.678 236.704 512.949 246.516 507.661C255.572 501.617 292.554 501.617 302.366 506.905Z" fill="#17172E"/>
<path opacity="0.1569" d="M302.366 507.661C312.177 513.705 330.291 556.01 330.291 556.01L302.366 604.358H246.516C246.516 604.358 218.59 567.341 218.59 556.01C218.59 544.678 236.704 512.949 246.516 507.661C256.327 501.618 292.554 501.618 302.366 507.661Z" fill="#17172E"/>
<path opacity="0.1373" d="M302.366 507.661C312.177 513.705 330.291 556.01 330.291 556.01L302.366 604.358H246.516C246.516 604.358 218.59 568.097 218.59 556.01C218.59 544.678 236.704 513.705 246.516 507.661C257.082 502.373 292.554 502.373 302.366 507.661Z" fill="#17172E"/>
<path opacity="0.1176" d="M302.366 508.417C312.932 514.46 330.291 556.765 330.291 556.765L302.366 604.358H247.27C247.27 604.358 219.345 568.097 219.345 556.01C219.345 543.923 236.704 513.705 247.27 507.661C257.082 502.373 291.8 502.373 302.366 508.417Z" fill="#17172E"/>
<path opacity="0.0980392" d="M302.366 508.417C312.932 514.46 330.291 556.01 330.291 556.01L302.366 604.358H247.27C247.27 604.358 219.345 568.852 219.345 556.765C219.345 544.678 236.704 515.216 247.27 509.172C257.837 502.373 291.8 502.373 302.366 508.417Z" fill="#17172E"/>
<path opacity="0.0784314" d="M302.366 509.172C312.932 515.215 329.536 556.765 329.536 556.765L302.366 604.358H247.27C247.27 604.358 220.1 568.852 220.1 556.765C220.1 544.678 236.704 515.215 247.27 509.172C258.591 503.128 291.8 503.128 302.366 509.172Z" fill="#17172E"/>
<path opacity="0.0588235" d="M302.366 509.172C313.687 515.215 329.536 556.765 329.536 556.765L302.366 604.358H248.025C248.025 604.358 220.855 569.608 220.855 556.765C220.855 543.922 237.459 515.971 248.025 509.172C258.591 503.128 291.8 503.128 302.366 509.172Z" fill="#17172E"/>
<path opacity="0.0392157" d="M302.366 509.927C313.687 516.726 329.536 556.765 329.536 556.765L302.366 604.358H248.025C248.025 604.358 220.855 570.363 220.855 557.521C220.855 544.678 236.704 516.726 248.025 510.683C259.346 503.128 291.045 503.128 302.366 509.927Z" fill="#17172E"/>
<path opacity="0.0196078" d="M302.366 510.683C313.687 517.482 329.536 557.521 329.536 557.521L302.366 604.358H248.025C248.025 604.358 220.855 570.363 220.855 557.521C220.855 543.923 236.704 517.482 248.025 510.683C259.346 503.884 291.045 503.884 302.366 510.683Z" fill="#17172E"/>
<path d="M25.3787 849.124L-9.33905 788.688L25.3787 728.252H94.8141L129.532 788.688L94.8141 849.124H25.3787Z" fill="url(#paint8_linear_13_106)"/>
<path d="M26.8881 846.102L-6.32013 788.688L26.8881 730.518H93.3047L126.513 788.688L93.3047 846.102H26.8881Z" fill="#17172E"/>
<path d="M129.532 909.559L94.8141 849.124L129.532 788.688H199.722L234.44 849.124L199.722 909.559H129.532Z" fill="url(#paint9_linear_13_106)"/>
<path d="M131.796 906.538L98.5878 849.124L131.796 791.709H198.213L231.421 849.124L198.213 906.538H131.796Z" fill="#17172E"/>
<path d="M339.348 909.559L303.875 849.124L339.348 788.688H408.783L443.501 849.124L408.783 909.559H339.348Z" fill="url(#paint10_linear_13_106)"/>
<path d="M340.857 906.538L307.649 849.124L340.857 791.709H407.274L440.482 849.124L407.274 906.538H340.857Z" fill="#17172E"/>
<path d="M339.348 788.688L303.875 728.252L339.348 667.816H408.783L443.501 728.252L408.783 788.688H339.348Z" fill="url(#paint11_linear_13_106)"/>
<path d="M340.857 785.666L307.649 728.252L340.857 670.838H407.274L440.482 728.252L407.274 785.666H340.857Z" fill="#17172E"/>
<path d="M339.348 667.816L303.875 607.38L339.348 546.944H408.783L443.501 607.38L408.783 667.816H339.348Z" fill="url(#paint12_linear_13_106)"/>
<path d="M340.857 664.794L307.649 607.38L340.857 549.966H407.274L440.482 607.38L407.274 664.794H340.857Z" fill="#17172E"/>
<path d="M339.348 305.201L303.875 244.765L339.348 184.329H408.783L443.501 244.765L408.783 305.201H339.348Z" fill="url(#paint13_linear_13_106)"/>
<path d="M340.857 302.179L307.649 244.765L340.857 186.596H407.274L440.482 244.765L407.274 302.179H340.857Z" fill="#17172E"/>
<path d="M234.44 849.124L199.722 788.688L234.44 728.252H303.875L339.348 788.688L303.875 849.124H234.44Z" fill="url(#paint14_linear_13_106)"/>
<path d="M235.949 846.102L202.741 788.688L235.949 731.274H302.366L335.574 788.688L302.366 846.102H235.949Z" fill="#17172E"/>
<path d="M234.44 486.508L199.722 426.073L234.44 365.637H303.875L339.348 426.073L303.875 486.508H234.44Z" fill="url(#paint15_linear_13_106)"/>
<path d="M235.949 483.487L202.741 426.073L235.949 367.903H302.366L335.574 426.073L302.366 483.487H235.949Z" fill="#17172E"/>
<path d="M443.501 728.252L408.783 667.816L443.501 607.38H513.691L548.409 667.816L513.691 728.252H443.501Z" fill="url(#paint16_linear_13_106)"/>
<path d="M445.01 725.23L411.802 667.816L445.01 609.646H511.427L544.635 667.816L511.427 725.23H445.01Z" fill="#17172E"/>
<path d="M443.501 123.138L408.783 62.7022L443.501 2.26636H513.691L548.409 62.7022L513.691 123.138H443.501Z" fill="url(#paint17_linear_13_106)"/>
<path d="M445.01 120.872L411.802 62.7021L445.01 5.28809H511.427L544.635 62.7021L511.427 120.872H445.01Z" fill="#17172E"/>
<path d="M443.501 365.637L408.783 305.201L443.501 244.01H513.691L548.409 305.201L513.691 365.637H443.501Z" fill="url(#paint18_linear_13_106)"/>
<path d="M445.01 362.615L411.802 305.201L445.01 247.031H511.427L544.635 305.201L511.427 362.615H445.01Z" fill="#17172E"/>
<path d="M130.287 183.574L94.8141 123.138L130.287 62.7021H199.722L234.44 123.138L199.722 183.574H130.287Z" fill="url(#paint19_linear_13_106)"/>
<path d="M131.796 181.307L98.5878 123.138L131.796 65.7239H198.213L231.421 123.138L198.213 181.307H131.796Z" fill="#17172E"/>
<path d="M129.532 667.816L94.8141 607.38L129.532 546.944H199.722L234.44 607.38L199.722 667.816H129.532Z" fill="url(#paint20_linear_13_106)"/>
<path d="M131.796 664.794L98.5878 607.38L131.796 549.966H198.213L231.421 607.38L198.213 664.794H131.796Z" fill="#17172E"/>
<path d="M339.348 546.944L303.875 486.509L339.348 426.073H408.783L443.501 486.509L408.783 546.944H339.348Z" fill="url(#paint21_linear_13_106)"/>
<path d="M340.857 543.923L307.649 486.509L340.857 429.094H407.274L440.482 486.509L407.274 543.923H340.857Z" fill="#17172E"/>
<path d="M25.3787 364.881L-9.33905 304.446L25.3787 244.01H94.8141L129.532 304.446L94.8141 364.881H25.3787Z" fill="url(#paint22_linear_13_106)"/>
<path d="M26.8881 362.615L-6.32013 304.446L26.8881 247.031H93.3047L126.513 304.446L93.3047 362.615H26.8881Z" fill="#17172E"/>
<path d="M234.44 365.637L199.722 305.201L234.44 244.765H303.875L339.348 305.201L303.875 365.637H234.44Z" fill="url(#paint23_linear_13_106)"/>
<path d="M235.949 362.615L202.741 305.201L235.949 247.031H302.366L335.574 305.201L302.366 362.615H235.949Z" fill="#17172E"/>
<path d="M25.3787 607.38L-9.33905 546.944L25.3787 486.509H94.8141L129.532 546.944L94.8141 607.38H25.3787Z" fill="url(#paint24_linear_13_106)"/>
<path d="M26.8881 604.358L-6.32013 546.944L26.8881 488.775H93.3047L126.513 546.944L93.3047 604.358H26.8881Z" fill="#17172E"/>
<path d="M129.532 426.073L94.8141 365.637L129.532 304.446H199.722L234.44 365.637L199.722 426.073H129.532Z" fill="url(#paint25_linear_13_106)"/>
<path d="M131.796 423.051L98.5878 365.637L131.796 307.467H198.213L231.421 365.637L198.213 423.051H131.796Z" fill="#17172E"/>
<path d="M25.3787 727.496L-9.33905 667.061L25.3787 606.625H94.8141L129.532 667.061L94.8141 727.496H25.3787Z" fill="url(#paint26_linear_13_106)"/>
<path d="M26.8881 725.23L-6.32013 667.061L26.8881 609.646H93.3047L126.513 667.061L93.3047 725.23H26.8881Z" fill="#17172E"/>
<path d="M339.348 184.329L303.875 123.893L339.348 63.4575H408.783L443.501 123.893L408.783 184.329H339.348Z" fill="url(#paint27_linear_13_106)"/>
<path d="M340.857 181.307L307.649 123.893L340.857 65.7239H407.274L440.482 123.893L407.274 181.307H340.857Z" fill="#17172E"/>
<path d="M25.3787 244.01L-9.33905 183.574L25.3787 123.138H94.8141L129.532 183.574L94.8141 244.01H25.3787Z" fill="url(#paint28_linear_13_106)"/>
<path d="M26.8881 241.743L-6.32013 183.574L26.8881 126.16H93.3047L126.513 183.574L93.3047 241.743H26.8881Z" fill="#17172E"/>
<path d="M234.44 728.252L199.722 667.816L234.44 607.38H303.875L339.348 667.816L303.875 728.252H234.44Z" fill="url(#paint29_linear_13_106)"/>
<path d="M235.949 725.23L202.741 667.816L235.949 609.646H302.366L335.574 667.816L302.366 725.23H235.949Z" fill="#17172E"/>
<path d="M129.532 546.944L94.8141 486.509L129.532 426.073H199.722L234.44 486.509L199.722 546.944H129.532Z" fill="url(#paint30_linear_13_106)"/>
<path d="M131.796 543.923L98.5878 486.509L131.796 428.339H198.213L231.421 486.509L198.213 543.923H131.796Z" fill="#17172E"/>
<path d="M234.44 244.765L199.722 184.329L234.44 123.894H303.875L339.348 184.329L303.875 244.765H234.44Z" fill="url(#paint31_linear_13_106)"/>
<path d="M235.949 241.743L202.741 184.329L235.949 126.16H302.366L335.574 184.329L302.366 241.743H235.949Z" fill="#17172E"/>
<path d="M25.3787 486.508L-9.33905 425.317L25.3787 364.881H94.8141L129.532 425.317L94.8141 486.508H25.3787Z" fill="url(#paint32_linear_13_106)"/>
<path d="M26.8881 483.487L-6.32013 425.317L26.8881 367.903H93.3047L126.513 425.317L93.3047 483.487H26.8881Z" fill="#17172E"/>
<path d="M592.183 849.879L557.466 789.443L592.183 729.007H662.374L697.091 789.443L662.374 849.879H592.183Z" fill="url(#paint33_linear_13_106)"/>
<path d="M594.448 846.857L561.239 789.443L594.448 732.029H660.864L694.072 789.443L660.864 846.857H594.448Z" fill="#17172E"/>
<path d="M621.618 305.201L586.9 244.765L621.618 184.329H691.808L726.526 244.765L691.808 305.201H621.618Z" fill="url(#paint34_linear_13_106)"/>
<path d="M623.127 302.935L589.919 244.765L623.127 187.351H689.544L722.752 244.765L689.544 302.935H623.127Z" fill="#17172E"/>
<path d="M697.091 789.443L662.374 729.007L697.091 668.572H766.527L801.999 729.007L766.527 789.443H697.091Z" fill="url(#paint35_linear_13_106)"/>
<path d="M698.601 786.421L665.392 729.007L698.601 671.593H765.017L798.225 729.007L765.017 786.421H698.601Z" fill="#17172E"/>
</g>
<defs>
<linearGradient id="paint0_linear_13_106" x1="199.536" y1="304.956" x2="129.692" y2="184.097" gradientUnits="userSpaceOnUse">
<stop stop-color="#4F4F4F"/>
<stop offset="1"/>
</linearGradient>
<linearGradient id="paint1_linear_13_106" x1="197.882" y1="302.09" x2="131.352" y2="186.966" gradientUnits="userSpaceOnUse">
<stop stop-color="#242424"/>
<stop offset="1" stop-color="#121212"/>
</linearGradient>
<linearGradient id="paint2_linear_13_106" x1="199.536" y1="788.612" x2="129.689" y2="667.748" gradientUnits="userSpaceOnUse">
<stop stop-color="#4F4F4F"/>
<stop offset="1"/>
</linearGradient>
<linearGradient id="paint3_linear_13_106" x1="197.881" y1="785.743" x2="131.35" y2="670.616" gradientUnits="userSpaceOnUse">
<stop stop-color="#242424"/>
<stop offset="1" stop-color="#121212"/>
</linearGradient>
<linearGradient id="paint4_linear_13_106" x1="408.769" y1="425.872" x2="338.923" y2="305.01" gradientUnits="userSpaceOnUse">
<stop stop-color="#4F4F4F"/>
<stop offset="1"/>
</linearGradient>
<linearGradient id="paint5_linear_13_106" x1="407.113" y1="423.003" x2="340.583" y2="307.878" gradientUnits="userSpaceOnUse">
<stop stop-color="#242424"/>
<stop offset="1" stop-color="#121212"/>
</linearGradient>
<linearGradient id="paint6_linear_13_106" x1="304.144" y1="607.24" x2="234.299" y2="486.38" gradientUnits="userSpaceOnUse">
<stop stop-color="#242424"/>
<stop offset="1" stop-color="#171717"/>
</linearGradient>
<linearGradient id="paint7_linear_13_106" x1="302.487" y1="604.37" x2="235.957" y2="489.248" gradientUnits="userSpaceOnUse">
<stop stop-color="#242424"/>
<stop offset="1" stop-color="#121212"/>
</linearGradient>
<linearGradient id="paint8_linear_13_106" x1="25.2443" y1="727.977" x2="95.0891" y2="848.837" gradientUnits="userSpaceOnUse">
<stop stop-color="#4F4F4F"/>
<stop offset="1"/>
</linearGradient>
<linearGradient id="paint9_linear_13_106" x1="129.88" y1="788.494" x2="199.725" y2="909.355" gradientUnits="userSpaceOnUse">
<stop stop-color="#4F4F4F"/>
<stop offset="1"/>
</linearGradient>
<linearGradient id="paint10_linear_13_106" x1="339.038" y1="788.664" x2="408.884" y2="909.524" gradientUnits="userSpaceOnUse">
<stop stop-color="#4F4F4F"/>
<stop offset="1"/>
</linearGradient>
<linearGradient id="paint11_linear_13_106" x1="339.038" y1="667.629" x2="408.884" y2="788.49" gradientUnits="userSpaceOnUse">
<stop stop-color="#4F4F4F"/>
<stop offset="1"/>
</linearGradient>
<linearGradient id="paint12_linear_13_106" x1="339.038" y1="546.92" x2="408.884" y2="667.781" gradientUnits="userSpaceOnUse">
<stop stop-color="#4F4F4F"/>
<stop offset="1"/>
</linearGradient>
<linearGradient id="paint13_linear_13_106" x1="339.038" y1="184.084" x2="408.885" y2="304.948" gradientUnits="userSpaceOnUse">
<stop stop-color="#4F4F4F"/>
<stop offset="1"/>
</linearGradient>
<linearGradient id="paint14_linear_13_106" x1="234.402" y1="728.148" x2="304.246" y2="849.007" gradientUnits="userSpaceOnUse">
<stop stop-color="#4F4F4F"/>
<stop offset="1"/>
</linearGradient>
<linearGradient id="paint15_linear_13_106" x1="234.402" y1="365.388" x2="304.248" y2="486.251" gradientUnits="userSpaceOnUse">
<stop stop-color="#4F4F4F"/>
<stop offset="1"/>
</linearGradient>
<linearGradient id="paint16_linear_13_106" x1="443.654" y1="607.017" x2="513.497" y2="727.875" gradientUnits="userSpaceOnUse">
<stop stop-color="#4F4F4F"/>
<stop offset="1"/>
</linearGradient>
<linearGradient id="paint17_linear_13_106" x1="443.698" y1="2.52925" x2="513.541" y2="123.387" gradientUnits="userSpaceOnUse">
<stop stop-color="#4F4F4F"/>
<stop offset="1"/>
</linearGradient>
<linearGradient id="paint18_linear_13_106" x1="443.653" y1="244.369" x2="513.498" y2="365.23" gradientUnits="userSpaceOnUse">
<stop stop-color="#4F4F4F"/>
<stop offset="1"/>
</linearGradient>
<linearGradient id="paint19_linear_13_106" x1="129.926" y1="62.9734" x2="199.772" y2="183.835" gradientUnits="userSpaceOnUse">
<stop stop-color="#4F4F4F"/>
<stop offset="1"/>
</linearGradient>
<linearGradient id="paint20_linear_13_106" x1="129.88" y1="546.75" x2="199.725" y2="667.611" gradientUnits="userSpaceOnUse">
<stop stop-color="#4F4F4F"/>
<stop offset="1"/>
</linearGradient>
<linearGradient id="paint21_linear_13_106" x1="339.038" y1="425.904" x2="408.882" y2="546.763" gradientUnits="userSpaceOnUse">
<stop stop-color="#4F4F4F"/>
<stop offset="1"/>
</linearGradient>
<linearGradient id="paint22_linear_13_106" x1="25.2436" y1="244.299" x2="95.0898" y2="365.162" gradientUnits="userSpaceOnUse">
<stop stop-color="#4F4F4F"/>
<stop offset="1"/>
</linearGradient>
<linearGradient id="paint23_linear_13_106" x1="234.403" y1="244.472" x2="304.247" y2="365.332" gradientUnits="userSpaceOnUse">
<stop stop-color="#4F4F4F"/>
<stop offset="1"/>
</linearGradient>
<linearGradient id="paint24_linear_13_106" x1="25.2443" y1="486.234" x2="95.0891" y2="607.093" gradientUnits="userSpaceOnUse">
<stop stop-color="#4F4F4F"/>
<stop offset="1"/>
</linearGradient>
<linearGradient id="paint25_linear_13_106" x1="129.88" y1="304.815" x2="199.725" y2="425.676" gradientUnits="userSpaceOnUse">
<stop stop-color="#4F4F4F"/>
<stop offset="1"/>
</linearGradient>
<linearGradient id="paint26_linear_13_106" x1="25.2443" y1="606.943" x2="95.089" y2="727.803" gradientUnits="userSpaceOnUse">
<stop stop-color="#4F4F4F"/>
<stop offset="1"/>
</linearGradient>
<linearGradient id="paint27_linear_13_106" x1="339.084" y1="63.1433" x2="408.93" y2="184.005" gradientUnits="userSpaceOnUse">
<stop stop-color="#4F4F4F"/>
<stop offset="1"/>
</linearGradient>
<linearGradient id="paint28_linear_13_106" x1="25.2436" y1="123.398" x2="95.0898" y2="244.261" gradientUnits="userSpaceOnUse">
<stop stop-color="#4F4F4F"/>
<stop offset="1"/>
</linearGradient>
<linearGradient id="paint29_linear_13_106" x1="234.403" y1="607.113" x2="304.248" y2="727.972" gradientUnits="userSpaceOnUse">
<stop stop-color="#4F4F4F"/>
<stop offset="1"/>
</linearGradient>
<linearGradient id="paint30_linear_13_106" x1="129.88" y1="425.731" x2="199.725" y2="546.592" gradientUnits="userSpaceOnUse">
<stop stop-color="#4F4F4F"/>
<stop offset="1"/>
</linearGradient>
<linearGradient id="paint31_linear_13_106" x1="234.403" y1="123.571" x2="304.247" y2="244.431" gradientUnits="userSpaceOnUse">
<stop stop-color="#4F4F4F"/>
<stop offset="1"/>
</linearGradient>
<linearGradient id="paint32_linear_13_106" x1="25.2436" y1="365.219" x2="95.0898" y2="486.081" gradientUnits="userSpaceOnUse">
<stop stop-color="#4F4F4F"/>
<stop offset="1"/>
</linearGradient>
<linearGradient id="paint33_linear_13_106" x1="592.522" y1="728.857" x2="662.365" y2="849.713" gradientUnits="userSpaceOnUse">
<stop stop-color="#4F4F4F"/>
<stop offset="1"/>
</linearGradient>
<linearGradient id="paint34_linear_13_106" x1="621.688" y1="184.573" x2="691.532" y2="305.432" gradientUnits="userSpaceOnUse">
<stop stop-color="#4F4F4F"/>
<stop offset="1"/>
</linearGradient>
<linearGradient id="paint35_linear_13_106" x1="697.116" y1="668.348" x2="766.959" y2="789.203" gradientUnits="userSpaceOnUse">
<stop stop-color="#4F4F4F"/>
<stop offset="1"/>
</linearGradient>
</defs>
</svg>
