<svg width="1080" height="447" viewBox="0 0 1080 447" fill="none" xmlns="http://www.w3.org/2000/svg">
<path d="M1079.82 139.627C1041.47 139.627 995.048 144.64 975.692 176.145V150.905L883.571 150.726H882.496V258.489C871.742 194.583 829.983 145.714 754.172 140.164V139.985C752.738 139.985 751.125 139.985 749.512 139.806C749.333 139.806 748.974 139.806 748.795 139.806C746.645 139.806 744.494 139.627 742.164 139.627C741.806 139.627 741.626 139.627 741.268 139.627C740.909 139.627 740.73 139.627 740.372 139.627C738.042 139.627 735.891 139.806 733.74 139.806C733.561 139.806 733.203 139.806 733.024 139.806C731.411 139.806 729.977 139.806 728.364 139.985V140.164C638.931 145.893 588.39 212.305 588.032 292.68C587.853 316.488 591.796 338.865 599.861 358.735L556.309 358.556L505.948 298.23L564.016 229.848H599.323V150.01H516.163V150.726H515.984L447.162 231.459L378.699 150.726H377.803V150.01H149.114V132.467C149.114 95.233 168.112 78.2271 201.626 78.2271C203.598 78.2271 205.211 78.4061 207.003 78.4061V0C205.928 0 205.032 0 203.956 0C120.976 0 56.993 43.4993 56.993 125.128V150.01H0V229.669H56.993V438.573H149.114V229.669H206.465V413.87C205.569 413.87 204.673 413.87 203.777 413.87H206.465V438.573H382.104L445.908 363.747L511.503 438.573H599.323V438.036H601.115V364.105V361.599C620.83 407.425 662.589 439.289 726.93 444.301C731.411 444.838 736.25 444.838 740.73 444.838C744.673 444.838 748.437 444.301 752.559 444.301C831.417 444.659 872.459 371.981 879.628 351.753V351.932C880.883 349.426 881.6 346.92 882.317 344.414V439.289H976.767V446.449L977.484 438.036V307.18C977.484 291.606 980.531 278.896 985.549 268.872C1007.77 226.447 1050.43 228.953 1079.82 228.953L1080 221.435L1079.82 139.627ZM332.997 358.377H297.152V229.669H333.535L388.198 293.754L332.997 358.377ZM740.909 213.916C772.274 214.095 787.328 231.817 792.884 256.52L688.397 255.983C694.311 231.459 709.725 213.916 740.909 213.916ZM870.667 341.55L795.214 341.192H789.3C779.442 353.901 764.746 361.778 744.852 363.031C735.533 362.315 727.288 360.525 719.94 357.482C701.66 349.426 690.727 333.315 686.426 311.655L882.317 312.55V341.55H870.667Z" fill="#020203"/>
</svg>
