<svg id="Camada_1" data-name="Camada 1" xmlns="http://www.w3.org/2000/svg" xmlns:xlink="http://www.w3.org/1999/xlink" viewBox="0 0 400 400"><defs><style>.cls-1{fill:none;}.cls-2{clip-path:url(#clip-path);}.cls-3{clip-path:url(#clip-path-2);}.cls-4{fill:#6ab42d;}.cls-5{fill:#17162e;}</style><clipPath id="clip-path"><rect class="cls-1" width="400" height="400" rx="79.5"/></clipPath><clipPath id="clip-path-2"><rect id="SVGID" class="cls-1" x="-6.87" y="-3.71" width="412.02" height="412.02"/></clipPath></defs><g class="cls-2"><g class="cls-3"><rect class="cls-4" x="-6.87" y="-3.71" width="412.02" height="412.02"/></g><path class="cls-5" d="M360,158.2c-11.38,0-25.14,1.46-30.86,10.81l0-7.51-27.31,0h-.34v32c-3.17-18.94-15.56-33.44-38-35.1v-.05L262,158.2h-.2c-.65,0-1.3-.06-2-.07h-.54c-.68,0-1.32,0-2,.05h-.2c-.46,0-.93,0-1.37,0v.05c-26.51,1.72-41.48,21.38-41.59,45.26a51.86,51.86,0,0,0,3.5,19.57l-12.91,0-14.95-17.89L207,184.9h10.45V161.26H193v.21h-.07L172.51,185.4,152.2,161.47h-.26v-.21H84.19V156c0-11,5.64-16.11,15.55-16.11.56,0,1.08,0,1.6.06v-23.2c-.31,0-.6,0-.92,0-24.61,0-43.52,12.89-43.52,37.14v7.36H40V184.9H56.9v62H84.19v-62h17v54.65l-.78,0,.78,0v7.31h52l18.9-22.19,19.41,22.19h26v-.17h.53V224.06c5.82,13.59,18.21,23.05,37.29,24.55a37.27,37.27,0,0,0,4.1.18c1.19,0,2.28-.15,3.53-.14,23.35.1,35.53-21.44,37.63-27.48v0a16.66,16.66,0,0,0,.81-2.24V247.1h27.95v2.14l.22-2.51V207.91a25.33,25.33,0,0,1,2.4-11.39c6.61-12.59,19.22-11.84,27.93-11.84l0-2.25h0ZM138.65,223.05H128V184.9h10.8l16.22,19Zm120.9-42.82c9.27.08,13.75,5.34,15.41,12.65L244,192.74c1.72-7.3,6.25-12.52,15.52-12.51M298,218.05l-22.37-.1h-1.74c-2.9,3.78-7.26,6.11-13.15,6.5a23.77,23.77,0,0,1-7.36-1.63c-5.39-2.4-8.67-7.19-9.94-13.58l58,.26v8.57Z"/></g></svg>